<?xml version="1.0" encoding="UTF-8" standalone="no"?>
<!-- Created with Inkscape (http://www.inkscape.org/) -->

<svg
   width="30mm"
   height="37mm"
   viewBox="0 0 30 37"
   version="1.1"
   id="svg1473"
   inkscape:version="1.1.1 (3bf5ae0d25, 2021-09-20)"
   sodipodi:docname="fastfood.svg"
   xmlns:inkscape="http://www.inkscape.org/namespaces/inkscape"
   xmlns:sodipodi="http://sodipodi.sourceforge.net/DTD/sodipodi-0.dtd"
   xmlns="http://www.w3.org/2000/svg"
   xmlns:svg="http://www.w3.org/2000/svg">
  <sodipodi:namedview
     id="namedview1475"
     pagecolor="#ffffff"
     bordercolor="#666666"
     borderopacity="1.0"
     inkscape:pageshadow="2"
     inkscape:pageopacity="0.0"
     inkscape:pagecheckerboard="0"
     inkscape:document-units="mm"
     showgrid="false"
     inkscape:zoom="0.97281145"
     inkscape:cx="232.31635"
     inkscape:cy="95.08523"
     inkscape:window-width="1366"
     inkscape:window-height="705"
     inkscape:window-x="-8"
     inkscape:window-y="-8"
     inkscape:window-maximized="1"
     inkscape:current-layer="layer1" />
  <defs
     id="defs1470" />
  <g
     inkscape:label="Camada 1"
     inkscape:groupmode="layer"
     id="layer1">
    <circle
       style="opacity:0.235;fill:#909cc2;fill-opacity:1;fill-rule:evenodd;stroke-width:0.776617"
       id="circle54911"
       cx="11.723491"
       cy="24.337173"
       r="9.8693857" />
    <g
       id="g53130"
       transform="matrix(0.51727269,0,0,0.51727269,-31.412564,-21.645345)">
      <path
         style="fill:#6bd6ab;fill-opacity:1;stroke:none;stroke-width:0.264583px;stroke-linecap:butt;stroke-linejoin:miter;stroke-opacity:1"
         d="M 76.677403,60.685095 80.175721,92.31274 97.23894,92.16995 100.38029,60.613702 Z"
         id="path44153" />
      <rect
         style="opacity:1;fill:#093a3e;fill-opacity:1;fill-rule:evenodd;stroke:none;stroke-width:1"
         id="rect44243"
         width="25.897955"
         height="2.4232004"
         x="75.674538"
         y="56.793762"
         ry="0" />
      <path
         style="fill:#093a3e;fill-opacity:1;stroke:none;stroke-width:0.264583px;stroke-linecap:butt;stroke-linejoin:miter;stroke-opacity:1"
         d="m 93.827685,55.585426 1.553259,0.02065 0.977031,-5.27704 c 0.04275,-0.625873 0.301235,-1.318865 1.452032,-1.874012 2.998683,-1.50628 5.818303,-2.038945 8.709913,-3.052709 l -0.48699,-1.478805 c -3.0719,1.084467 -6.296239,1.906544 -9.241516,3.349752 -0.868184,0.560399 -1.625563,1.183588 -1.787825,2.144009 z"
         id="path44578"
         sodipodi:nodetypes="ccccccccc" />
    </g>
    <path
       style="fill:#093a3e;fill-opacity:1;stroke:none;stroke-width:0.136862px;stroke-linecap:butt;stroke-linejoin:miter;stroke-opacity:1"
       d="m 21.286935,24.148223 c 1.754191,-0.01848 7.164475,0.01848 7.164475,0.01848 0.949029,0.434813 0.842482,0.926823 0.794019,1.754192 -0.08881,0.452644 -0.425498,0.69654 -0.843061,0.872343 l -12.673425,-0.0047 c -0.29723,-0.16142 -0.627364,-0.23509 -0.775536,-0.793998 -0.05105,-0.32006 -0.07015,-0.640127 0,-0.960187 0.07118,-0.341183 0.234215,-0.644095 0.720142,-0.812465 0.276979,-0.09055 0.553952,-0.065 0.830931,-0.05537 1.039532,0.582377 1.776087,1.213223 2.382005,1.864976 0.551707,-0.776881 1.51941,-1.304165 2.400465,-1.883444 z"
       id="path45690"
       sodipodi:nodetypes="cccccccccccc" />
    <path
       id="path46608"
       style="fill:#a0ced9;fill-opacity:1;stroke:none;stroke-width:0.136862px;stroke-linecap:butt;stroke-linejoin:miter;stroke-opacity:1"
       d="m 22.162561,18.522019 c -0.147243,0 -0.297476,0.0031 -0.450949,0.01041 -1.480019,0.09854 -2.940106,0.321131 -4.282543,1.279601 -0.973345,0.772501 -2.206319,1.867353 -2.036887,3.463247 4.449073,0.123241 8.912547,0.0909 13.396411,-0.02943 -0.08982,-1.298993 -0.329894,-2.601931 -3.016304,-3.969259 -1.044541,-0.432957 -2.186381,-0.754569 -3.609728,-0.754608 z m -0.05213,1.090884 a 0.38429409,0.3902275 0 0 1 0.384389,0.390273 0.38429409,0.3902275 0 0 1 -0.384389,0.390266 0.38429409,0.3902275 0 0 1 -0.384122,-0.390266 0.38429409,0.3902275 0 0 1 0.384122,-0.390273 z m -2.43785,0.265168 a 0.38429409,0.3902275 0 0 1 0.38439,0.390273 0.38429409,0.3902275 0 0 1 -0.38439,0.390274 0.38429409,0.3902275 0 0 1 -0.384122,-0.390274 0.38429409,0.3902275 0 0 1 0.384122,-0.390273 z m 4.875699,0 a 0.38429409,0.3902275 0 0 1 0.38439,0.390273 0.38429409,0.3902275 0 0 1 -0.38439,0.390274 0.38429409,0.3902275 0 0 1 -0.384122,-0.390274 0.38429409,0.3902275 0 0 1 0.384122,-0.390273 z m 1.702218,1.462712 a 0.38429409,0.3902275 0 0 1 0.38439,0.390273 0.38429409,0.3902275 0 0 1 -0.38439,0.390266 0.38429409,0.3902275 0 0 1 -0.384122,-0.390266 0.38429409,0.3902275 0 0 1 0.384122,-0.390273 z m -8.271581,0.0085 a 0.38429409,0.3902275 0 0 1 0.38439,0.390266 0.38429409,0.3902275 0 0 1 -0.38439,0.390274 0.38429409,0.3902275 0 0 1 -0.384122,-0.390274 0.38429409,0.3902275 0 0 1 0.384122,-0.390266 z m 5.517238,0.265169 a 0.38429409,0.3902275 0 0 1 0.384391,0.390265 0.38429409,0.3902275 0 0 1 -0.384391,0.390274 0.38429409,0.3902275 0 0 1 -0.384121,-0.390274 0.38429409,0.3902275 0 0 1 0.384121,-0.390265 z m -2.745788,0.03425 a 0.38429409,0.3902275 0 0 1 0.384389,0.390266 0.38429409,0.3902275 0 0 1 -0.384389,0.390274 0.38429409,0.3902275 0 0 1 -0.384122,-0.390274 0.38429409,0.3902275 0 0 1 0.384122,-0.390266 z" />
    <path
       style="fill:#a0ced9;fill-opacity:1;stroke:none;stroke-width:0.136862px;stroke-linecap:butt;stroke-linejoin:miter;stroke-opacity:1"
       d="m 17.237875,30.374348 9.812393,0.0039 c 1.085497,-0.275917 1.433906,-0.958284 1.586217,-1.66235 0.06527,-0.366765 0.09645,-0.738772 0.04899,-1.122887 -0.57514,0.257814 -0.85215,0.362059 -1.475417,0.06205 -0.191019,-0.149926 -0.622693,-0.229056 -0.930299,0.01305 -0.580391,0.279124 -0.974216,0.216241 -1.363506,-0.01149 -0.244178,-0.134922 -0.50762,-0.197618 -0.823518,-0.0636 -0.463332,0.288195 -1.008625,0.352972 -1.493812,0.08712 -0.262205,-0.143667 -0.595577,-0.199435 -0.843356,-0.100176 -0.39173,0.242211 -0.939253,0.412694 -1.418635,0.100533 -0.400385,-0.172883 -0.721524,-0.247236 -1.085115,0.007 -0.472171,0.194713 -0.886967,0.262768 -1.365263,-0.0511 -0.294194,-0.151106 -0.643793,-0.183507 -0.892704,-0.0089 -0.482528,0.317861 -0.898239,0.298042 -1.512092,-0.0084 l 0.04573,1.149006 c 0.286941,0.981582 0.849005,1.52964 1.710425,1.605982 z"
       id="path47336"
       sodipodi:nodetypes="ccccccccsccccccccc" />
  </g>
</svg>
