<?xml version="1.0" encoding="UTF-8" standalone="no"?>
<!-- Created with Inkscape (http://www.inkscape.org/) -->

<svg
   width="200mm"
   height="100mm"
   viewBox="0 0 200 100"
   version="1.1"
   id="svg140433"
   inkscape:version="1.1.1 (3bf5ae0d25, 2021-09-20)"
   sodipodi:docname="genetica_importa2.svg"
   xmlns:inkscape="http://www.inkscape.org/namespaces/inkscape"
   xmlns:sodipodi="http://sodipodi.sourceforge.net/DTD/sodipodi-0.dtd"
   xmlns="http://www.w3.org/2000/svg"
   xmlns:svg="http://www.w3.org/2000/svg">
  <sodipodi:namedview
     id="namedview140435"
     pagecolor="#ffffff"
     bordercolor="#666666"
     borderopacity="1.0"
     inkscape:pageshadow="2"
     inkscape:pageopacity="0.0"
     inkscape:pagecheckerboard="0"
     inkscape:document-units="mm"
     showgrid="false"
     width="200mm"
     inkscape:zoom="0.46324355"
     inkscape:cx="825.69958"
     inkscape:cy="214.78982"
     inkscape:window-width="1366"
     inkscape:window-height="705"
     inkscape:window-x="-8"
     inkscape:window-y="-8"
     inkscape:window-maximized="1"
     inkscape:current-layer="layer1" />
  <defs
     id="defs140430" />
  <g
     inkscape:label="Camada 1"
     inkscape:groupmode="layer"
     id="layer1">
    <rect
       style="fill:#34023a;fill-opacity:1;fill-rule:evenodd;stroke-width:0.876359"
       id="rect139871"
       width="75.751999"
       height="43.01181"
       x="25.850517"
       y="35.511528" />
    <text
       xml:space="preserve"
       style="font-size:15.1625px;line-height:1.25;font-family:'Microsoft JhengHei UI';-inkscape-font-specification:'Microsoft JhengHei UI';letter-spacing:0px;stroke-width:0.37907"
       x="50.366703"
       y="40.459328"
       id="text30037"><tspan
         sodipodi:role="line"
         id="tspan30035"
         style="font-size:15.1625px;fill:#d81159;fill-opacity:1;stroke-width:0.37907"
         x="50.366703"
         y="40.459328"><tspan
   style="font-style:normal;font-variant:normal;font-weight:bold;font-stretch:normal;font-size:15.1625px;font-family:'Century Gothic';-inkscape-font-specification:'Century Gothic Bold';fill:#d81159;fill-opacity:1;stroke-width:0.37907"
   id="tspan35101">E a genética,</tspan> </tspan></text>
    <text
       xml:space="preserve"
       style="font-size:22.6987px;line-height:1.25;font-family:'Microsoft JhengHei UI';-inkscape-font-specification:'Microsoft JhengHei UI';letter-spacing:0px;stroke-width:0.567465"
       x="35.238106"
       y="73.320976"
       id="text30557"
       transform="rotate(-0.59641465)"><tspan
         sodipodi:role="line"
         id="tspan30555"
         style="font-style:normal;font-variant:normal;font-weight:bold;font-stretch:normal;font-family:Ebrima;-inkscape-font-specification:'Ebrima Bold';fill:#ff7f35;fill-opacity:1;stroke-width:0.567465"
         x="35.238106"
         y="73.320976">IMPORTA</tspan></text>
    <text
       xml:space="preserve"
       style="font-size:28.269px;line-height:1.25;font-family:'Microsoft JhengHei UI';-inkscape-font-specification:'Microsoft JhengHei UI';letter-spacing:0px;stroke-width:0.706729"
       x="151.40886"
       y="61.508602"
       id="text31119"
       transform="rotate(8.0152695)"><tspan
         sodipodi:role="line"
         id="tspan31117"
         style="font-style:normal;font-variant:normal;font-weight:bold;font-stretch:normal;font-family:'Century Gothic';-inkscape-font-specification:'Century Gothic';fill:#d81159;fill-opacity:1;stroke-width:0.706729"
         x="151.40886"
         y="61.508602">?</tspan></text>
    <g
       id="g112125"
       transform="rotate(73.012775,171.42665,-50.420907)">
      <path
         style="fill:#6bd6ab;fill-opacity:1;stroke:none;stroke-width:0.0572894px;stroke-linecap:butt;stroke-linejoin:miter;stroke-opacity:1"
         d="m 258.93092,6.6956123 c 0.008,-0.038648 6.40947,-6.41492934 6.40947,-6.41492934 -0.15615,-0.17729456 -0.29259,-0.36771931 -0.48875,-0.51833773 l -6.40483,6.43284907 c 0.14489,0.1738691 0.27109,0.3557475 0.48411,0.500418 z"
         id="path103901"
         sodipodi:nodetypes="ccccc" />
      <g
         id="g103866"
         transform="matrix(0.2165271,0,0,0.2165271,231.86259,-28.303079)">
        <path
           style="fill:#093a3e;fill-opacity:1;stroke:none;stroke-width:0.264583px;stroke-linecap:butt;stroke-linejoin:miter;stroke-opacity:1"
           d="m 129.17822,164.30343 c 0.96729,2.02939 -0.23642,2.46725 -1.3019,2.76792 -17.15196,-8.43588 -14.50823,-25.56766 -12.7743,-41.87266 -22.999812,1.95315 -51.945742,3.5854 -43.592363,-42.78463 -17.313568,2.699422 -29.927041,-0.670037 -38.260993,-9.278482 -0.209857,-1.373552 -0.226492,-2.629025 2.089676,-2.458896 7.832886,7.471184 19.015198,11.258 36.348008,8.279267 l 3.432868,3.230936 c -9.370924,40.378455 14.705656,41.708175 40.103204,39.841065 l 0.0938,-2.88726 c 1.6009,-24.766142 -2.23895,-45.125555 -38.985403,-37.559606 l -4.644469,-2.625135 c 4.072268,-20.50984 -1.406553,-29.08082 -7.938505,-36.335386 -0.537038,-2.335356 0.767957,-2.395157 1.969747,-2.464867 8.670293,8.268271 12.327779,19.367818 9.881219,38.396387 35.131041,-6.916369 46.010501,8.146195 42.809881,42.456487 0.1437,-0.009 -0.21931,0.93242 0.22653,0.88068 16.86176,-1.95687 34.95876,-2.09619 41.37174,12.85079 -0.15383,1.33855 -0.78065,2.15682 -2.82706,1.41354 -4.39832,-10.31735 -17.72657,-13.71151 -39.06799,-10.8932 -3.19416,24.25202 2.76162,35.0386 11.06631,39.04305 z"
           id="path95440"
           sodipodi:nodetypes="ccccccccccccccccscccc" />
        <path
           style="fill:#ff7f35;fill-opacity:1;stroke:none;stroke-width:0.264583px;stroke-linecap:butt;stroke-linejoin:miter;stroke-opacity:1"
           d="m 75.119216,82.186885 c -0.234243,-0.128296 0.807734,-0.403867 1.211601,-0.605801"
           id="path99294"
           sodipodi:nodetypes="cc" />
        <path
           style="fill:#093a3e;fill-opacity:1;stroke:none;stroke-width:0.264583px;stroke-linecap:butt;stroke-linejoin:miter;stroke-opacity:1"
           d="m 75.119216,82.186885 c -0.357487,0.178744 1.198053,-0.56333 1.639966,-0.784287 -1.465834,-0.570291 -3.490551,-2.515013 -4.822615,-2.81036 -0.133939,-0.0297 -0.09515,0.493361 -0.150632,0.485427 -0.107894,-0.01543 -0.304854,0.07684 -0.411532,0.08934 z"
           id="path102314"
           sodipodi:nodetypes="ccsscc" />
      </g>
      <path
         style="fill:#6bd6ab;fill-opacity:1;stroke:none;stroke-width:0.0572894px;stroke-linecap:butt;stroke-linejoin:miter;stroke-opacity:1"
         d="m 257.93376,5.2751616 6.00743,-6.02750562 c -0.25069,-0.10888282 -0.50964,-0.20400317 -0.77578,-0.28712358 l -5.53088,5.5436772 c 0.0722,0.2971574 0.19637,0.5454369 0.29923,0.770952 z"
         id="path103903"
         sodipodi:nodetypes="ccccc" />
      <path
         style="fill:#6bd6ab;fill-opacity:1;stroke:none;stroke-width:0.0572894px;stroke-linecap:butt;stroke-linejoin:miter;stroke-opacity:1"
         d="m 257.38372,3.374879 4.6594,-4.6537628 c -0.32601,-0.044232 -0.65331,-0.082027 -0.98653,-0.090181 l -3.78583,3.7708345 c 0.0359,0.4730186 0.0771,0.7218647 0.11298,0.9731097 z"
         id="path103905"
         sodipodi:nodetypes="cccccc" />
      <path
         style="fill:#6bd6ab;fill-opacity:1;stroke:none;stroke-width:0.0572894px;stroke-linecap:butt;stroke-linejoin:miter;stroke-opacity:1"
         d="m 252.26819,-1.9149321 4.48111,-4.4134828 c -0.0326,-0.3061303 -0.0933,-0.6091247 -0.17198,-0.9101361 l -5.12939,5.1672343 c 0.26796,0.057588 0.52835,0.1227449 0.82026,0.1563846 z"
         id="path106126"
         sodipodi:nodetypes="ccccc" />
      <path
         style="fill:#6bd6ab;fill-opacity:1;stroke:none;stroke-width:0.0572894px;stroke-linecap:butt;stroke-linejoin:miter;stroke-opacity:1"
         d="m 250.3513,-2.4250722 5.87434,-5.8588794 c -0.0781,-0.2573113 -0.23026,-0.4816611 -0.37102,-0.7111043 l -6.18641,6.211534 c 0.2182,0.1606457 0.44963,0.263927 0.68309,0.3584497 z"
         id="path106128"
         sodipodi:nodetypes="ccccc" />
      <path
         style="fill:#6bd6ab;fill-opacity:1;stroke:none;stroke-width:0.0572894px;stroke-linecap:butt;stroke-linejoin:miter;stroke-opacity:1"
         d="m 248.8705,-3.4531212 6.33392,-6.2930117 c -0.15452,-0.1506644 -0.36063,-0.3244161 -0.60239,-0.4619691 l -6.16805,6.1793349 c 0.10039,0.2189522 0.26428,0.3997999 0.43652,0.5756459 z"
         id="path106130"
         sodipodi:nodetypes="ccccc" />
      <path
         style="fill:#6bd6ab;fill-opacity:1;stroke:none;stroke-width:0.0572894px;stroke-linecap:butt;stroke-linejoin:miter;stroke-opacity:1"
         d="m 247.97064,-4.9757722 5.68884,-5.6888328 c -0.40448,-0.169385 -0.59963,-0.181771 -0.80386,-0.200964 l -5.06587,5.0386244 c 0.0369,0.3130202 0.11806,0.5706139 0.18089,0.8511724 z"
         id="path106132"
         sodipodi:nodetypes="ccccc" />
      <path
         style="fill:#6bd6ab;fill-opacity:1;stroke:none;stroke-width:0.0572894px;stroke-linecap:butt;stroke-linejoin:miter;stroke-opacity:1"
         d="m 241.09165,-11.847672 5.6964,-5.754063 c -0.11551,-0.144449 -0.25177,-0.475563 -0.4058,-0.595163 l -5.94973,5.924364 c 0.0971,0.140404 0.58186,0.369324 0.65913,0.424862 z"
         id="path108813"
         sodipodi:nodetypes="ccccc" />
      <path
         style="fill:#6bd6ab;fill-opacity:1;stroke:none;stroke-width:0.0572894px;stroke-linecap:butt;stroke-linejoin:miter;stroke-opacity:1"
         d="m 242.92142,-11.192137 4.56614,-4.635703 c -0.0387,-0.0812 -0.11831,-0.606761 -0.23961,-0.784533 l -5.16249,5.177754 c 0.21096,0.119594 0.72314,0.193556 0.83596,0.242482 z"
         id="path108895"
         sodipodi:nodetypes="ccccc" />
      <path
         style="fill:#6bd6ab;fill-opacity:1;stroke:none;stroke-width:0.0572894px;stroke-linecap:butt;stroke-linejoin:miter;stroke-opacity:1"
         d="m 245.16487,-10.973781 2.51592,-2.566158 c 0,0 0.0728,-0.726694 -0.0116,-1.02028 l -3.5741,3.53719 c 0.41325,0.05846 0.8334,0.03569 1.06977,0.04925 z"
         id="path108897"
         sodipodi:nodetypes="ccccc" />
    </g>
  </g>
</svg>
