<?xml version="1.0" encoding="UTF-8" standalone="no"?>
<!-- Created with Inkscape (http://www.inkscape.org/) -->

<svg
   width="210mm"
   height="297mm"
   viewBox="0 0 210 297"
   version="1.1"
   id="svg32270"
   inkscape:version="1.1.1 (3bf5ae0d25, 2021-09-20)"
   sodipodi:docname="icones.svg"
   xmlns:inkscape="http://www.inkscape.org/namespaces/inkscape"
   xmlns:sodipodi="http://sodipodi.sourceforge.net/DTD/sodipodi-0.dtd"
   xmlns="http://www.w3.org/2000/svg"
   xmlns:svg="http://www.w3.org/2000/svg">
  <sodipodi:namedview
     id="namedview32272"
     pagecolor="#ffffff"
     bordercolor="#666666"
     borderopacity="1.0"
     inkscape:pageshadow="2"
     inkscape:pageopacity="0.0"
     inkscape:pagecheckerboard="0"
     inkscape:document-units="mm"
     showgrid="false"
     inkscape:zoom="0.1767767"
     inkscape:cx="-135.7645"
     inkscape:cy="670.33723"
     inkscape:window-width="1366"
     inkscape:window-height="705"
     inkscape:window-x="-8"
     inkscape:window-y="-8"
     inkscape:window-maximized="1"
     inkscape:current-layer="layer1"
     showguides="true"
     inkscape:guide-bbox="true" />
  <defs
     id="defs32267">
    <clipPath
       clipPathUnits="userSpaceOnUse"
       id="clipPath36389">
      <path
         style="fill:none;stroke:#000000;stroke-width:0.264583px;stroke-linecap:butt;stroke-linejoin:miter;stroke-opacity:1"
         d="m 268.16754,-248.78192 24.23199,124.39096 100.15895,-9.6928 -1.61546,-108.23629 -129.23736,-11.30827 z"
         id="path36391" />
    </clipPath>
  </defs>
  <g
     inkscape:label="Camada 1"
     inkscape:groupmode="layer"
     id="layer1">
    <circle
       style="opacity:0.235;fill:#909cc2;fill-opacity:1;fill-rule:evenodd;stroke-width:1"
       id="path34866"
       cx="17.848555"
       cy="25.559134"
       r="12.708173" />
    <g
       id="g112125"
       transform="matrix(1.0033508,0.17089505,-0.17089505,1.0033508,-234.08236,-15.733263)">
      <path
         style="fill:#6bd6ab;fill-opacity:1;stroke:none;stroke-width:0.0572894px;stroke-linecap:butt;stroke-linejoin:miter;stroke-opacity:1"
         d="m 258.93092,6.6956123 c 0.008,-0.038648 6.40947,-6.41492934 6.40947,-6.41492934 -0.15615,-0.17729456 -0.29259,-0.36771931 -0.48875,-0.51833773 l -6.40483,6.43284907 c 0.14489,0.1738691 0.27109,0.3557475 0.48411,0.500418 z"
         id="path103901"
         sodipodi:nodetypes="ccccc" />
      <g
         id="g103866"
         transform="matrix(0.2165271,0,0,0.2165271,231.86259,-28.303079)">
        <path
           style="fill:#093a3e;fill-opacity:1;stroke:none;stroke-width:0.264583px;stroke-linecap:butt;stroke-linejoin:miter;stroke-opacity:1"
           d="m 129.17822,164.30343 c 0.96729,2.02939 -0.23642,2.46725 -1.3019,2.76792 -17.15196,-8.43588 -14.50823,-25.56766 -12.7743,-41.87266 -22.999812,1.95315 -51.945742,3.5854 -43.592363,-42.78463 -17.313568,2.699422 -29.927041,-0.670037 -38.260993,-9.278482 -0.209857,-1.373552 -0.226492,-2.629025 2.089676,-2.458896 7.832886,7.471184 19.015198,11.258 36.348008,8.279267 l 3.432868,3.230936 c -9.370924,40.378455 14.705656,41.708175 40.103204,39.841065 l 0.0938,-2.88726 c 1.6009,-24.766142 -2.23895,-45.125555 -38.985403,-37.559606 l -4.644469,-2.625135 c 4.072268,-20.50984 -1.406553,-29.08082 -7.938505,-36.335386 -0.537038,-2.335356 0.767957,-2.395157 1.969747,-2.464867 8.670293,8.268271 12.327779,19.367818 9.881219,38.396387 35.131041,-6.916369 46.010501,8.146195 42.809881,42.456487 0.1437,-0.009 -0.21931,0.93242 0.22653,0.88068 16.86176,-1.95687 34.95876,-2.09619 41.37174,12.85079 -0.15383,1.33855 -0.78065,2.15682 -2.82706,1.41354 -4.39832,-10.31735 -17.72657,-13.71151 -39.06799,-10.8932 -3.19416,24.25202 2.76162,35.0386 11.06631,39.04305 z"
           id="path95440"
           sodipodi:nodetypes="ccccccccccccccccscccc" />
        <path
           style="fill:#ff7f35;fill-opacity:1;stroke:none;stroke-width:0.264583px;stroke-linecap:butt;stroke-linejoin:miter;stroke-opacity:1"
           d="m 75.119216,82.186885 c -0.234243,-0.128296 0.807734,-0.403867 1.211601,-0.605801"
           id="path99294"
           sodipodi:nodetypes="cc" />
        <path
           style="fill:#093a3e;fill-opacity:1;stroke:none;stroke-width:0.264583px;stroke-linecap:butt;stroke-linejoin:miter;stroke-opacity:1"
           d="m 75.119216,82.186885 c -0.357487,0.178744 1.198053,-0.56333 1.639966,-0.784287 -1.465834,-0.570291 -3.490551,-2.515013 -4.822615,-2.81036 -0.133939,-0.0297 -0.09515,0.493361 -0.150632,0.485427 -0.107894,-0.01543 -0.304854,0.07684 -0.411532,0.08934 z"
           id="path102314"
           sodipodi:nodetypes="ccsscc" />
      </g>
      <path
         style="fill:#6bd6ab;fill-opacity:1;stroke:none;stroke-width:0.0572894px;stroke-linecap:butt;stroke-linejoin:miter;stroke-opacity:1"
         d="m 257.93376,5.2751616 6.00743,-6.02750562 c -0.25069,-0.10888282 -0.50964,-0.20400317 -0.77578,-0.28712358 l -5.53088,5.5436772 c 0.0722,0.2971574 0.19637,0.5454369 0.29923,0.770952 z"
         id="path103903"
         sodipodi:nodetypes="ccccc" />
      <path
         style="fill:#6bd6ab;fill-opacity:1;stroke:none;stroke-width:0.0572894px;stroke-linecap:butt;stroke-linejoin:miter;stroke-opacity:1"
         d="m 257.38372,3.374879 4.6594,-4.6537628 c -0.32601,-0.044232 -0.65331,-0.082027 -0.98653,-0.090181 l -3.78583,3.7708345 c 0.0359,0.4730186 0.0771,0.7218647 0.11298,0.9731097 z"
         id="path103905"
         sodipodi:nodetypes="cccccc" />
      <path
         style="fill:#6bd6ab;fill-opacity:1;stroke:none;stroke-width:0.0572894px;stroke-linecap:butt;stroke-linejoin:miter;stroke-opacity:1"
         d="m 252.26819,-1.9149321 4.48111,-4.4134828 c -0.0326,-0.3061303 -0.0933,-0.6091247 -0.17198,-0.9101361 l -5.12939,5.1672343 c 0.26796,0.057588 0.52835,0.1227449 0.82026,0.1563846 z"
         id="path106126"
         sodipodi:nodetypes="ccccc" />
      <path
         style="fill:#6bd6ab;fill-opacity:1;stroke:none;stroke-width:0.0572894px;stroke-linecap:butt;stroke-linejoin:miter;stroke-opacity:1"
         d="m 250.3513,-2.4250722 5.87434,-5.8588794 c -0.0781,-0.2573113 -0.23026,-0.4816611 -0.37102,-0.7111043 l -6.18641,6.211534 c 0.2182,0.1606457 0.44963,0.263927 0.68309,0.3584497 z"
         id="path106128"
         sodipodi:nodetypes="ccccc" />
      <path
         style="fill:#6bd6ab;fill-opacity:1;stroke:none;stroke-width:0.0572894px;stroke-linecap:butt;stroke-linejoin:miter;stroke-opacity:1"
         d="m 248.8705,-3.4531212 6.33392,-6.2930117 c -0.15452,-0.1506644 -0.36063,-0.3244161 -0.60239,-0.4619691 l -6.16805,6.1793349 c 0.10039,0.2189522 0.26428,0.3997999 0.43652,0.5756459 z"
         id="path106130"
         sodipodi:nodetypes="ccccc" />
      <path
         style="fill:#6bd6ab;fill-opacity:1;stroke:none;stroke-width:0.0572894px;stroke-linecap:butt;stroke-linejoin:miter;stroke-opacity:1"
         d="m 247.97064,-4.9757722 5.68884,-5.6888328 c -0.40448,-0.169385 -0.59963,-0.181771 -0.80386,-0.200964 l -5.06587,5.0386244 c 0.0369,0.3130202 0.11806,0.5706139 0.18089,0.8511724 z"
         id="path106132"
         sodipodi:nodetypes="ccccc" />
      <path
         style="fill:#6bd6ab;fill-opacity:1;stroke:none;stroke-width:0.0572894px;stroke-linecap:butt;stroke-linejoin:miter;stroke-opacity:1"
         d="m 241.09165,-11.847672 5.6964,-5.754063 c -0.11551,-0.144449 -0.25177,-0.475563 -0.4058,-0.595163 l -5.94973,5.924364 c 0.0971,0.140404 0.58186,0.369324 0.65913,0.424862 z"
         id="path108813"
         sodipodi:nodetypes="ccccc" />
      <path
         style="fill:#6bd6ab;fill-opacity:1;stroke:none;stroke-width:0.0572894px;stroke-linecap:butt;stroke-linejoin:miter;stroke-opacity:1"
         d="m 242.92142,-11.192137 4.56614,-4.635703 c -0.0387,-0.0812 -0.11831,-0.606761 -0.23961,-0.784533 l -5.16249,5.177754 c 0.21096,0.119594 0.72314,0.193556 0.83596,0.242482 z"
         id="path108895"
         sodipodi:nodetypes="ccccc" />
      <path
         style="fill:#6bd6ab;fill-opacity:1;stroke:none;stroke-width:0.0572894px;stroke-linecap:butt;stroke-linejoin:miter;stroke-opacity:1"
         d="m 245.16487,-10.973781 2.51592,-2.566158 c 0,0 0.0728,-0.726694 -0.0116,-1.02028 l -3.5741,3.53719 c 0.41325,0.05846 0.8334,0.03569 1.06977,0.04925 z"
         id="path108897"
         sodipodi:nodetypes="ccccc" />
    </g>
    <circle
       style="opacity:0.235;fill:#909cc2;fill-opacity:1;fill-rule:evenodd;stroke-width:1"
       id="circle43884"
       cx="19.262089"
       cy="69.378677"
       r="12.708173" />
    <path
       id="path36477"
       style="fill:#6bd6ab;fill-opacity:1;stroke:none;stroke-width:0.223489px;stroke-linecap:butt;stroke-linejoin:miter;stroke-opacity:1"
       d="m 25.131914,54.124381 a 3.8165063,3.8911309 0 0 0 -3.816346,3.891426 3.8165063,3.8911309 0 0 0 3.816346,3.89099 3.8165063,3.8911309 0 0 0 3.816347,-3.89099 3.8165063,3.8911309 0 0 0 -3.816347,-3.891426 z m -10.033026,0.22218 a 1.4925647,1.4925646 0 0 0 -1.492838,1.492406 1.4925647,1.4925646 0 0 0 0.442615,1.059392 l 7.186151,8.568994 v 5.970489 h 7.869712 l -0.03016,-5.81946 5.850011,-8.684229 c 2.5e-5,-0.01274 -4.39e-4,-0.02452 -4.39e-4,-0.03711 a 1.4925647,1.4925646 0 0 0 0.331741,-0.937609 1.4925647,1.4925646 0 0 0 -1.492398,-1.492403 1.4925647,1.4925646 0 0 0 -1.116581,0.503724 c -0.01495,0.0014 -0.02897,0.0023 -0.04409,0.0035 l -4.918955,7.461987 H 22.293722 L 16.38041,55.064575 c -0.0025,-9.29e-4 -0.0051,-0.0016 -0.0076,-0.0026 a 1.4925647,1.4925646 0 0 0 -1.274157,-0.715431 z" />
    <path
       style="fill:#093a3e;fill-opacity:1;stroke:none;stroke-width:0.223489px;stroke-linecap:butt;stroke-linejoin:miter;stroke-opacity:1"
       d="m 36.304185,53.591505 v 2.473268 c 0.735239,1.393307 2.019802,0.86646 2.345335,0.04264 l -0.04266,-2.387983 0.341143,-0.04264 0.04266,1.353901 c 0.651607,0.690325 1.324762,0.864064 2.174769,-0.03198 l 0.02129,-1.364563 0.831525,-0.02132 c 0.484756,-0.557306 0.628868,-1.105588 -0.02129,-1.577773 l -0.831533,-0.02132 0.01064,-1.567116 c -0.792788,-0.964676 -1.826615,-0.548018 -2.142789,-0.01065 l -0.01064,1.567112 -0.341143,0.01066 -0.03193,-2.729124 C 37.94381,48.1542 36.918253,48.195176 36.240266,49.359247 l -0.04266,2.601195 -23.474713,0.01066 -0.08529,-2.601193 c -0.724528,-1.389673 -2.176973,-0.63033 -2.387975,0.08528 l 0.05752,2.51203 -0.461528,0.0088 -0.02238,-1.4548 c -0.724207,-0.886847 -1.609361,-0.579673 -2.046841,0 v 1.49249 c -0.158893,0.03211 -0.43432,0.01487 -0.554248,0.06656 -0.680335,0.293261 -0.693774,1.031282 0.04705,1.464076 0.102544,0.0599 0.293469,-0.0043 0.421852,0.04713 l 0.04266,1.535132 c 0.696493,0.824464 1.421419,0.82438 2.174768,0 l 0.04266,-1.449846 h 0.341143 l 0.08529,2.601193 c 0.737452,0.984107 1.846718,0.805791 2.387975,-0.08528 L 12.72289,53.59152 Z"
       id="path37775"
       sodipodi:nodetypes="ccccccccccccccccccccccccccssccccccccc" />
    <circle
       style="opacity:0.235;fill:#909cc2;fill-opacity:1;fill-rule:evenodd;stroke-width:1"
       id="circle54911"
       cx="20.188129"
       cy="122.16306"
       r="12.708173" />
    <g
       id="g53130"
       transform="matrix(0.66605875,0,0,0.66605875,-35.355396,62.95433)">
      <path
         style="fill:#6bd6ab;fill-opacity:1;stroke:none;stroke-width:0.264583px;stroke-linecap:butt;stroke-linejoin:miter;stroke-opacity:1"
         d="M 76.677403,60.685095 80.175721,92.31274 97.23894,92.16995 100.38029,60.613702 Z"
         id="path44153" />
      <rect
         style="opacity:1;fill:#093a3e;fill-opacity:1;fill-rule:evenodd;stroke:none;stroke-width:1"
         id="rect44243"
         width="25.897955"
         height="2.4232004"
         x="75.674538"
         y="56.793762"
         ry="0" />
      <path
         style="fill:#093a3e;fill-opacity:1;stroke:none;stroke-width:0.264583px;stroke-linecap:butt;stroke-linejoin:miter;stroke-opacity:1"
         d="m 93.827685,55.585426 1.553259,0.02065 0.977031,-5.27704 c 0.04275,-0.625873 0.301235,-1.318865 1.452032,-1.874012 2.998683,-1.50628 5.818303,-2.038945 8.709913,-3.052709 l -0.48699,-1.478805 c -3.0719,1.084467 -6.296239,1.906544 -9.241516,3.349752 -0.868184,0.560399 -1.625563,1.183588 -1.787825,2.144009 z"
         id="path44578"
         sodipodi:nodetypes="ccccccccc" />
    </g>
    <path
       style="fill:#093a3e;fill-opacity:1;stroke:none;stroke-width:0.176228px;stroke-linecap:butt;stroke-linejoin:miter;stroke-opacity:1"
       d="m 32.502357,121.91976 c 2.258759,-0.0238 9.225234,0.0238 9.225234,0.0238 1.222004,0.55988 1.08481,1.19341 1.022407,2.25876 -0.114356,0.58284 -0.547887,0.89689 -1.085556,1.12326 l -16.318753,-0.006 c -0.382724,-0.20785 -0.807816,-0.30271 -0.998608,-1.02238 -0.06574,-0.41212 -0.09033,-0.82425 0,-1.23637 0.09166,-0.43932 0.301584,-0.82936 0.92728,-1.04616 0.356648,-0.1166 0.713289,-0.0837 1.069937,-0.0713 1.338538,0.74989 2.286953,1.56219 3.067154,2.40141 0.710398,-1.00034 1.956447,-1.67929 3.090925,-2.42519 z"
       id="path45690"
       sodipodi:nodetypes="cccccccccccc" />
    <path
       id="path46608"
       style="fill:#a0ced9;fill-opacity:1;stroke:none;stroke-width:0.176228px;stroke-linecap:butt;stroke-linejoin:miter;stroke-opacity:1"
       d="m 33.629845,114.67526 c -0.189595,0 -0.383041,0.004 -0.580658,0.0134 -1.905726,0.12689 -3.785785,0.4135 -5.514355,1.64766 -1.253314,0.9947 -2.840935,2.40447 -2.622768,4.4594 5.728784,0.15869 11.476113,0.11705 17.249696,-0.0379 -0.115654,-1.67263 -0.424784,-3.35034 -3.883901,-5.11096 -1.344988,-0.55749 -2.815262,-0.97161 -4.648014,-0.97166 z m -0.06712,1.40466 a 0.49483077,0.50247083 0 0 1 0.494954,0.50253 0.49483077,0.50247083 0 0 1 -0.494954,0.50252 0.49483077,0.50247083 0 0 1 -0.494609,-0.50252 0.49483077,0.50247083 0 0 1 0.494609,-0.50253 z m -3.139062,0.34144 a 0.49483077,0.50247083 0 0 1 0.494954,0.50253 0.49483077,0.50247083 0 0 1 -0.494954,0.50253 0.49483077,0.50247083 0 0 1 -0.494609,-0.50253 0.49483077,0.50247083 0 0 1 0.494609,-0.50253 z m 6.278124,0 a 0.49483077,0.50247083 0 0 1 0.494954,0.50253 0.49483077,0.50247083 0 0 1 -0.494954,0.50253 0.49483077,0.50247083 0 0 1 -0.494609,-0.50253 0.49483077,0.50247083 0 0 1 0.494609,-0.50253 z m 2.191836,1.88344 a 0.49483077,0.50247083 0 0 1 0.494954,0.50253 0.49483077,0.50247083 0 0 1 -0.494954,0.50252 0.49483077,0.50247083 0 0 1 -0.494609,-0.50252 0.49483077,0.50247083 0 0 1 0.494609,-0.50253 z m -10.650782,0.011 a 0.49483077,0.50247083 0 0 1 0.494954,0.50252 0.49483077,0.50247083 0 0 1 -0.494954,0.50253 0.49483077,0.50247083 0 0 1 -0.494609,-0.50253 0.49483077,0.50247083 0 0 1 0.494609,-0.50252 z m 7.104192,0.34144 a 0.49483077,0.50247083 0 0 1 0.494955,0.50252 0.49483077,0.50247083 0 0 1 -0.494955,0.50253 0.49483077,0.50247083 0 0 1 -0.494608,-0.50253 0.49483077,0.50247083 0 0 1 0.494608,-0.50252 z m -3.535575,0.0441 a 0.49483077,0.50247083 0 0 1 0.494954,0.50252 0.49483077,0.50247083 0 0 1 -0.494954,0.50253 0.49483077,0.50247083 0 0 1 -0.494608,-0.50253 0.49483077,0.50247083 0 0 1 0.494608,-0.50252 z" />
    <path
       style="fill:#a0ced9;fill-opacity:1;stroke:none;stroke-width:0.176228px;stroke-linecap:butt;stroke-linejoin:miter;stroke-opacity:1"
       d="m 27.288643,129.93674 12.634788,0.005 c 1.397724,-0.35528 1.846348,-1.23392 2.042469,-2.1405 0.08404,-0.47226 0.124193,-0.95127 0.06308,-1.44587 -0.740571,0.33197 -1.097259,0.4662 -1.8998,0.0799 -0.245962,-0.19305 -0.801801,-0.29494 -1.197886,0.0168 -0.747332,0.35941 -1.254435,0.27844 -1.755698,-0.0148 -0.314413,-0.17373 -0.65363,-0.25446 -1.060392,-0.0819 -0.596602,0.37109 -1.298741,0.4545 -1.923485,0.11218 -0.337625,-0.18499 -0.766886,-0.2568 -1.085935,-0.12899 -0.504406,0.31188 -1.209416,0.5314 -1.826686,0.12945 -0.51555,-0.22261 -0.929059,-0.31835 -1.397232,0.009 -0.607985,0.25072 -1.142091,0.33835 -1.757962,-0.0658 -0.378814,-0.19457 -0.82897,-0.23629 -1.149477,-0.0114 -0.62132,0.40929 -1.156605,0.38377 -1.947023,-0.0108 l 0.05888,1.4795 c 0.369476,1.26392 1.093209,1.96962 2.202404,2.06792 z"
       id="path47336"
       sodipodi:nodetypes="ccccccccsccccccccc" />
    <circle
       style="opacity:0.235;fill:#909cc2;fill-opacity:1;fill-rule:evenodd;stroke-width:1"
       id="circle5003"
       cx="76.147507"
       cy="38.951599"
       r="12.708173" />
    <g
       id="g5001"
       transform="matrix(0.47481944,0.10902638,-0.10902638,0.47481944,20.533008,-17.821456)">
      <path
         style="opacity:1;fill:#093a3e;fill-opacity:1;stroke:none;stroke-width:0.264583px;stroke-linecap:butt;stroke-linejoin:miter;stroke-opacity:1"
         d="m 124.50281,79.115808 c 6.03878,-5.979983 11.6531,-11.405961 17.42507,-17.098312 1.08042,1.162379 8.61552,8.265306 14.48721,14.493943 l -17.03403,16.845805 c -8.7798,6.048466 -21.3734,-2.727146 -14.87825,-14.241436 z"
         id="path888"
         sodipodi:nodetypes="ccccc" />
      <path
         style="opacity:1;fill:#a0ced9;fill-opacity:1;stroke:none;stroke-width:0.264583px;stroke-linecap:butt;stroke-linejoin:miter;stroke-opacity:1"
         d="m 141.92788,62.017496 14.48721,14.493941 16.95314,-16.78175 c 6.99313,-10.741767 -5.55115,-21.510848 -14.81667,-14.2875 z"
         id="path3261"
         sodipodi:nodetypes="ccccc" />
    </g>
    <ellipse
       style="opacity:1;fill:#6bd6ab;fill-opacity:1;fill-rule:evenodd;stroke:none;stroke-width:0.721405"
       id="path4680"
       cx="72.88253"
       cy="55.944862"
       rx="4.9522657"
       ry="4.8760881"
       transform="rotate(-10.934184)" />
    <circle
       style="opacity:0.235;fill:#909cc2;fill-opacity:1;fill-rule:evenodd;stroke-width:1"
       id="circle10092"
       cx="54.717705"
       cy="86.018356"
       r="12.708173" />
    <path
       id="path5130"
       style="opacity:0.920489;fill:#093a3e;fill-opacity:1;stroke:none;stroke-width:0.200079px;stroke-linecap:butt;stroke-linejoin:miter;stroke-opacity:1"
       d="m 75.680937,57.953858 -0.52092,3.801519 -5.70227,1.050424 -0.60024,6.052415 -4.75191,5.70229 -7.85314,-0.05011 -4.0016,6.902766 -3.35134,0.04998 0.0324,0.92655 3.26889,-0.02621 3.85779,6.75271 8.39711,0.04998 4.10163,-6.852735 5.35214,-1.000402 c 1.97742,2.970036 5.79227,-0.922182 2.55103,-2.751101 l 0.65024,-6.502603 -7.30291,-3.201277 0.5002,-5.302121 5.70229,-1.000403 0.60023,-4.401758 z m -6.32128,11.826991 6.77301,2.917963 -0.67174,5.676887 c -0.88126,0.31237 -1.59576,0.813342 -1.7511,1.945299 l -5.28765,0.919522 -3.60769,-6.118859 z m -12.65701,5.730028 7.30291,0.100089 3.50453,6.226324 -3.50453,6.278681 -7.30291,-0.04998 -3.58972,-6.231797 z m 19.08262,3.78902 a 1.0629249,1.0691774 0 0 1 1.06293,1.069167 1.0629249,1.0691774 0 0 1 -1.06293,1.06918 1.0629249,1.0691774 0 0 1 -1.06292,-1.06918 1.0629249,1.0691774 0 0 1 1.06292,-1.069167 z" />
    <path
       id="path7481"
       style="fill:#6bd6ab;fill-opacity:1;fill-rule:evenodd;stroke:none;stroke-width:1.13899"
       d="m 76.494827,54.408224 a 2.0195575,1.9882949 0 0 0 -2.01956,1.988297 2.0195575,1.9882949 0 0 0 2.01956,1.988291 2.0195575,1.9882949 0 0 0 2.01955,-1.988291 2.0195575,1.9882949 0 0 0 -2.01955,-1.988297 z m 0.0375,0.962888 a 1.0441673,1.0441675 0 0 1 1.04416,1.044164 1.0441673,1.0441675 0 0 1 -1.04416,1.044172 1.0441673,1.0441675 0 0 1 -1.04417,-1.044172 1.0441673,1.0441675 0 0 1 1.04417,-1.044164 z" />
    <rect
       style="opacity:1;fill:#6bd6ab;fill-opacity:1;fill-rule:evenodd;stroke:none;stroke-width:0.741452"
       id="rect10345"
       width="6.4156756"
       height="1.0403782"
       x="90.97377"
       y="39.402946"
       ry="0.52018911"
       transform="rotate(22.173354)" />
    <circle
       style="opacity:0.235;fill:#909cc2;fill-opacity:1;fill-rule:evenodd;stroke-width:1"
       id="circle25879"
       cx="24.290623"
       cy="166.1871"
       r="12.708173" />
    <path
       id="path11503"
       style="fill:none;fill-opacity:1;stroke:#093a3e;stroke-width:0.95;stroke-linecap:butt;stroke-linejoin:miter;stroke-miterlimit:4;stroke-dasharray:none;stroke-opacity:1"
       d="m 20.926043,150.23385 c 0.32839,0.89036 0.40932,1.83228 0,2.87634 l -2.09889,3.04737 c -0.50931,0.83718 -0.0703,0.83486 0.23095,0.95917 1.40927,0.33706 1.4767,1.12415 1.2713,2.25331 -0.0893,0.39815 0.28429,0.71581 0.70485,0.84365 -0.0247,0.41049 -0.33385,0.69849 0.0348,1.38659 0.13908,0.43813 0.46112,0.77868 0.17321,1.44453 l -0.24266,1.02861 c 0.021,0.80013 0.45594,1.07146 1.02839,1.16704 l 5.41985,-1e-5 c 2.366687,0.98483 1.84206,2.60326 0.24237,3.83331 l 12.537597,-0.0301 c -1.32637,-0.19226 -1.98407,-8.48391 -1.49368,-12.39552 1.15827,-3.99764 4.432,-7.30147 -1.47318,-13.96238 -7.32791,-6.70431 -18.913257,0.44248 -16.334897,7.54807 z"
       sodipodi:nodetypes="cccccccccccccccc" />
    <path
       id="path9658"
       style="fill:#6bd6ab;fill-opacity:1;fill-rule:evenodd;stroke:none;stroke-width:1.13899"
       d="m 47.269487,79.959406 a 2.0195575,1.9882949 0 0 0 -2.01956,1.988303 2.0195575,1.9882949 0 0 0 2.01956,1.98829 2.0195575,1.9882949 0 0 0 2.01956,-1.98829 2.0195575,1.9882949 0 0 0 -2.01956,-1.988303 z m 0.0375,0.962885 a 1.0441673,1.0441675 0 0 1 1.04417,1.044164 1.0441673,1.0441675 0 0 1 -1.04417,1.044177 1.0441673,1.0441675 0 0 1 -1.04418,-1.044177 1.0441673,1.0441675 0 0 1 1.04418,-1.044164 z" />
    <rect
       style="fill:#6bd6ab;fill-opacity:1;fill-rule:evenodd;stroke:none;stroke-width:0.741452"
       id="rect10263"
       width="6.4156756"
       height="1.0403782"
       x="-42.037273"
       y="98.033363"
       ry="0.52018911"
       transform="rotate(-59.004352)" />
    <rect
       style="fill:#6bd6ab;fill-opacity:1;fill-rule:evenodd;stroke:none;stroke-width:0.741452"
       id="rect10347"
       width="6.4156756"
       height="1.0403782"
       x="97.95829"
       y="-7.1607137"
       ry="0.52018911"
       transform="rotate(60)" />
    <rect
       style="fill:#6bd6ab;fill-opacity:1;fill-rule:evenodd;stroke:none;stroke-width:0.741452"
       id="rect10349"
       width="6.4156756"
       height="1.0403782"
       x="57.018456"
       y="76.446678"
       ry="0.52018911" />
    <g
       id="g25787"
       transform="matrix(0.55218966,0,0,0.55218966,-1.062978,95.057717)"
       style="stroke:#6bd6ab;stroke-width:0.905486;stroke-miterlimit:4;stroke-dasharray:none;stroke-opacity:1">
      <path
         style="fill:none;stroke:#6bd6ab;stroke-width:0.905486;stroke-linecap:butt;stroke-linejoin:miter;stroke-miterlimit:4;stroke-dasharray:none;stroke-opacity:1"
         d="m 77.834561,116.03842 c -11.058929,-4.00126 -16.42538,-12.97687 -11.722195,-22.458405 1.690725,-3.575484 6.419269,0.603464 2.049514,4.146406 -1.593019,0.573253 -2.727313,0.515758 -3.61629,0.120953 -2.9388,-1.928835 -6.238415,-3.824451 -7.038522,-8.490813 1.945207,-7.879455 9.181682,0.727393 2.548395,4.936128 -3.610032,1.62756 -6.486873,1.057325 -8.961537,-1.117478 -5.833181,-5.112255 -1.4845,-10.814067 2.811105,-3.875551 2.944853,4.042796 0.903174,8.460943 0.163594,10.044422 -1.250319,1.835928 -2.661325,3.337088 -4.95785,2.993418 -1.889883,-0.46142 -6.356429,-3.49555 -3.766613,-9.4207 4.451993,-7.806294 18.60932,-1.961532 19.856238,-0.775632 1.085277,0.782889 4.097319,5.475394 -0.212119,9.954922 -10.784538,7.60692 -9.415136,-16.133726 -0.976647,-2.04985 0.02846,2.15395 -0.910735,3.6571 -1.867624,4.49725 -2.177599,1.64677 -4.247621,3.63234 -9.095052,-0.56224 -3.84824,-4.293446 -4.188073,-9.036687 -4.696354,-13.758333 v 0"
         id="path15911"
         sodipodi:nodetypes="cccccccccccccccccc" />
      <path
         style="fill:none;stroke:#6bd6ab;stroke-width:0.905486;stroke-linecap:butt;stroke-linejoin:miter;stroke-miterlimit:4;stroke-dasharray:none;stroke-opacity:1"
         d="m 63.896874,108.61146 c -1.792157,1.55567 -10.048187,5.85554 -11.516711,-1.98438 -0.377469,-7.89606 12.995272,-9.495038 17.139107,-6.01927 3.923742,6.59609 -2.059,9.7543 -6.842305,7.49845 -4.48463,-2.07884 1.165925,-4.70338 1.751375,-0.80772 -0.05924,0.42821 -0.256692,0.86747 -0.531466,1.31292 z"
         id="path23807"
         sodipodi:nodetypes="cccccc" />
    </g>
    <circle
       style="opacity:0.235;fill:#909cc2;fill-opacity:1;fill-rule:evenodd;stroke-width:1"
       id="circle43856"
       cx="76.934479"
       cy="128.62781"
       r="12.708173" />
    <g
       id="g44066"
       transform="rotate(-22.205458,202.06949,224.74483)">
      <path
         style="fill:#093a3e;fill-opacity:1;stroke:#093a3e;stroke-width:0.258755;stroke-linecap:butt;stroke-linejoin:miter;stroke-miterlimit:4;stroke-dasharray:none;stroke-opacity:1"
         d="m 140.5597,83.455025 c -2.3306,-1.861739 -2.78422,-3.644264 -1.35327,-5.985661 l -0.90923,0.243628 c -2.90955,0.305656 -2.65408,-1.16641 -2.98912,-2.011239 -1.56793,2.365856 -3.1101,2.937099 -4.15041,1.863867 0.39637,1.862882 0.24228,2.602292 -1.01151,3.083206 -1.5054,0.259174 -2.36106,0.476444 -3.34795,0.702177 l 0.35077,0.685622 c 0.85016,-0.186766 1.53552,-0.645767 2.95045,0.100415 2.54481,1.498561 1.16797,2.740668 0.69411,3.837367 1.83475,-1.81426 3.98059,-1.993733 4.82342,-0.443209 l 0.5686,1.03098 c 0.26124,-3.155473 2.29419,-3.958258 4.37414,-3.107153 z"
         id="path26104"
         sodipodi:nodetypes="ccccccccccccc" />
      <path
         style="fill:none;stroke:#093a3e;stroke-width:0.258755;stroke-linecap:round;stroke-linejoin:round;stroke-miterlimit:4;stroke-dasharray:none;stroke-opacity:1"
         d="m 136.18556,86.562178 c -0.11917,1.043989 0.16829,2.209413 1.17115,2.916011 0.93978,0.231595 2.01153,-0.348983 2.46271,0.774047"
         id="path29160"
         sodipodi:nodetypes="ccc" />
      <path
         style="fill:none;stroke:#093a3e;stroke-width:0.264505;stroke-linecap:round;stroke-linejoin:round;stroke-miterlimit:4;stroke-dasharray:none;stroke-opacity:1"
         d="m 139.04344,91.824482 c -0.14082,-0.737422 -0.43478,-1.270464 -0.95809,-1.497406 0.37386,0.658367 0.25785,0.978879 0.0238,1.023836"
         id="path29162"
         sodipodi:nodetypes="ccc" />
      <path
         style="fill:none;stroke:#093a3e;stroke-width:0.258755;stroke-linecap:round;stroke-linejoin:round;stroke-miterlimit:4;stroke-dasharray:none;stroke-opacity:1"
         d="m 138.08535,90.327076 c -0.7965,-0.316448 -0.5977,-0.496261 -0.72864,-0.848887 v 0"
         id="path29164"
         sodipodi:nodetypes="ccc" />
      <path
         style="fill:none;stroke:#093a3e;stroke-width:0.264505;stroke-linecap:round;stroke-linejoin:round;stroke-miterlimit:4;stroke-dasharray:none;stroke-opacity:1"
         d="m 136.61602,88.688223 c 0.48241,2.36654 -1.29928,2.631894 -0.17169,4.918574"
         id="path29978"
         sodipodi:nodetypes="cc" />
      <path
         style="fill:none;stroke:#093a3e;stroke-width:0.258755;stroke-linecap:round;stroke-linejoin:round;stroke-miterlimit:4;stroke-dasharray:none;stroke-opacity:1"
         d="m 136.22416,87.693411 c -0.49853,0.822916 -0.99772,1.095252 -1.4969,1.375608 -0.71951,1.125299 0.93775,1.177046 0.62832,2.44891"
         id="path30222"
         sodipodi:nodetypes="ccc" />
      <path
         style="fill:none;stroke:#093a3e;stroke-width:0.264505;stroke-linecap:round;stroke-linejoin:round;stroke-miterlimit:4;stroke-dasharray:none;stroke-opacity:1"
         d="m 134.54021,89.694003 c -0.61983,0.505873 0.20745,1.860875 0.40515,2.838752"
         id="path30390"
         sodipodi:nodetypes="cc" />
      <path
         style="fill:none;stroke:#093a3e;stroke-width:0.258755;stroke-linecap:round;stroke-linejoin:round;stroke-miterlimit:4;stroke-dasharray:none;stroke-opacity:1"
         d="m 134.72726,89.069019 c -1.72612,0.681386 -1.22321,2.471773 -2.56493,2.845122"
         id="path30392"
         sodipodi:nodetypes="cc" />
      <path
         style="fill:none;stroke:#093a3e;stroke-width:0.258755;stroke-linecap:round;stroke-linejoin:round;stroke-miterlimit:4;stroke-dasharray:none;stroke-opacity:1"
         d="m 133.32462,90.542973 c -0.65302,0.06868 -1.35028,0.399019 -1.96146,0.207066"
         id="path30394"
         sodipodi:nodetypes="cc" />
      <path
         style="fill:none;stroke:#093a3e;stroke-width:0.264505;stroke-linecap:round;stroke-linejoin:round;stroke-miterlimit:4;stroke-dasharray:none;stroke-opacity:1"
         d="m 130.79354,85.974407 c -0.60709,2.442872 -1.05131,2.575636 -1.5356,2.771281"
         id="path31284"
         sodipodi:nodetypes="cc" />
      <path
         style="fill:none;stroke:#093a3e;stroke-width:0.258755;stroke-linecap:round;stroke-linejoin:round;stroke-miterlimit:4;stroke-dasharray:none;stroke-opacity:1"
         d="m 130.34542,87.438873 c 0.67205,1.472234 0.61958,2.668241 -0.052,3.628202"
         id="path31286"
         sodipodi:nodetypes="cc" />
      <path
         style="fill:none;stroke:#093a3e;stroke-width:0.258755;stroke-linecap:round;stroke-linejoin:round;stroke-miterlimit:4;stroke-dasharray:none;stroke-opacity:1"
         d="m 130.66492,88.292016 c 0.42286,0.528959 0.84049,0.937459 1.33014,0.822801"
         id="path31288"
         sodipodi:nodetypes="cc" />
      <path
         style="fill:none;stroke:#093a3e;stroke-width:0.264505;stroke-linecap:round;stroke-linejoin:round;stroke-miterlimit:4;stroke-dasharray:none;stroke-opacity:1"
         d="m 130.79354,85.974407 c -1.50455,1.881016 -2.48417,0.852472 -3.3053,3.147028"
         id="path31342"
         sodipodi:nodetypes="cc" />
      <path
         style="fill:none;stroke:#093a3e;stroke-width:0.264505;stroke-linecap:round;stroke-linejoin:round;stroke-miterlimit:4;stroke-dasharray:none;stroke-opacity:1"
         d="m 128.60166,87.541079 c -1.12175,0.502568 -1.54309,-0.02388 -1.85691,-0.386125"
         id="path31344"
         sodipodi:nodetypes="cc" />
      <path
         style="fill:none;stroke:#093a3e;stroke-width:0.258755;stroke-linecap:round;stroke-linejoin:miter;stroke-miterlimit:4;stroke-dasharray:none;stroke-opacity:1"
         d="m 140.5597,83.455025 c 0.79622,0.390765 1.34185,1.064186 1.38458,2.304821 -0.47681,1.166322 1.00636,1.782495 0.922,2.706175"
         id="path32861"
         sodipodi:nodetypes="ccc" />
      <path
         style="fill:none;stroke:#093a3e;stroke-width:0.258755;stroke-linecap:round;stroke-linejoin:miter;stroke-miterlimit:4;stroke-dasharray:none;stroke-opacity:1"
         d="m 141.94428,85.759846 c 0.13251,0.360026 0.41151,0.605568 0.91004,0.898069 0.37108,0.147917 0.72671,0.136461 1.06622,-0.04128"
         id="path32863"
         sodipodi:nodetypes="ccc" />
      <path
         style="fill:none;stroke:#093a3e;stroke-width:0.258755;stroke-linecap:round;stroke-linejoin:miter;stroke-miterlimit:4;stroke-dasharray:none;stroke-opacity:1"
         d="m 142.85432,86.657915 c 0.79471,0.554897 1.0173,1.263092 1.10858,2.006473"
         id="path32865"
         sodipodi:nodetypes="cc" />
      <path
         style="fill:none;stroke:#093a3e;stroke-width:0.258755;stroke-linecap:round;stroke-linejoin:miter;stroke-miterlimit:4;stroke-dasharray:none;stroke-opacity:1"
         d="m 141.40405,84.100622 c 0.7717,0.351286 1.4814,0.77313 2.3696,0.991851"
         id="path32867"
         sodipodi:nodetypes="cc" />
      <path
         style="fill:none;stroke:#093a3e;stroke-width:0.258755;stroke-linecap:round;stroke-linejoin:miter;stroke-miterlimit:4;stroke-dasharray:none;stroke-opacity:1"
         d="m 145.52189,84.79546 c -0.47773,0.576742 -1.10337,0.480646 -1.74824,0.297015 1.25423,0.591611 0.80431,1.504605 1.8928,2.282779"
         id="path32869"
         sodipodi:nodetypes="ccc" />
      <path
         style="fill:none;stroke:#093a3e;stroke-width:0.258755;stroke-linecap:round;stroke-linejoin:miter;stroke-miterlimit:4;stroke-dasharray:none;stroke-opacity:1"
         d="m 140.5597,83.455025 c 0.63133,-0.03787 1.31835,0.173144 1.77304,-0.654053 -0.37051,-0.961649 -0.32265,-1.764756 0.33898,-2.335282"
         id="path32871"
         sodipodi:nodetypes="ccc" />
      <path
         style="fill:none;stroke:#093a3e;stroke-width:0.258755;stroke-linecap:round;stroke-linejoin:miter;stroke-miterlimit:4;stroke-dasharray:none;stroke-opacity:1"
         d="m 142.33274,82.800972 c 0.57576,-0.692641 1.40649,-1.010525 2.44145,-1.028258 0.22181,0.550345 0.34273,1.152681 1.28567,1.331389"
         id="path32873"
         sodipodi:nodetypes="ccc" />
      <path
         style="fill:none;stroke:#093a3e;stroke-width:0.258755;stroke-linecap:round;stroke-linejoin:miter;stroke-miterlimit:4;stroke-dasharray:none;stroke-opacity:1"
         d="m 144.77419,81.772714 c 0.77162,-0.179252 1.10866,-0.699606 1.32021,-1.318471"
         id="path32875"
         sodipodi:nodetypes="cc" />
      <path
         style="fill:none;stroke:#093a3e;stroke-width:0.258755;stroke-linecap:round;stroke-linejoin:miter;stroke-miterlimit:4;stroke-dasharray:none;stroke-opacity:1"
         d="m 139.20643,77.469364 c 0.41053,-0.240239 0.73406,-0.579809 1.56699,-0.708291 0.43267,0.03772 0.85304,0.189388 1.22231,0.814396 -0.14537,0.558532 0.087,1.143282 0.546,1.743763"
         id="path32877"
         sodipodi:nodetypes="cccc" />
      <path
         style="fill:none;stroke:#093a3e;stroke-width:0.258755;stroke-linecap:round;stroke-linejoin:miter;stroke-miterlimit:4;stroke-dasharray:none;stroke-opacity:1"
         d="m 141.99573,77.575469 c 0.70825,-0.169445 1.21591,0.369174 1.60025,1.343148"
         id="path32879"
         sodipodi:nodetypes="cc" />
      <path
         style="fill:none;stroke:#093a3e;stroke-width:0.258755;stroke-linecap:round;stroke-linejoin:miter;stroke-miterlimit:4;stroke-dasharray:none;stroke-opacity:1"
         d="m 140.77342,76.761073 c 0.34421,-0.08696 0.60334,-0.49147 0.85641,-0.918562 -0.10812,-0.840481 -0.53495,-1.826027 0.0155,-2.366745"
         id="path32881"
         sodipodi:nodetypes="ccc" />
      <path
         style="fill:none;stroke:#093a3e;stroke-width:0.258755;stroke-linecap:round;stroke-linejoin:miter;stroke-miterlimit:4;stroke-dasharray:none;stroke-opacity:1"
         d="m 141.62983,75.842511 c 0.24575,-0.300404 0.45522,-0.61144 1.14935,-0.780484 0.94684,-0.05299 1.61702,0.221144 2.05649,0.768071"
         id="path32883"
         sodipodi:nodetypes="ccc" />
      <path
         style="fill:none;stroke:#093a3e;stroke-width:0.258755;stroke-linecap:round;stroke-linejoin:miter;stroke-miterlimit:4;stroke-dasharray:none;stroke-opacity:1"
         d="m 142.77918,75.062027 c 0.82001,-0.647567 0.66939,-1.267892 0.34198,-1.883255"
         id="path32885"
         sodipodi:nodetypes="cc" />
      <path
         style="fill:none;stroke:#093a3e;stroke-width:0.258755;stroke-linecap:round;stroke-linejoin:miter;stroke-miterlimit:4;stroke-dasharray:none;stroke-opacity:1"
         d="m 139.20643,77.469364 c 0.64354,-0.630539 0.96171,-1.497943 0.25335,-3.112647 -0.71439,-0.452331 -0.65068,-0.881462 -0.59187,-1.180205"
         id="path32887"
         sodipodi:nodetypes="ccc" />
      <path
         style="fill:none;stroke:#093a3e;stroke-width:0.258755;stroke-linecap:round;stroke-linejoin:miter;stroke-miterlimit:4;stroke-dasharray:none;stroke-opacity:1"
         d="m 139.45978,74.356717 c 0.56916,-0.195278 0.70695,-0.7379 0.83637,-1.287267"
         id="path32889"
         sodipodi:nodetypes="cc" />
      <path
         style="fill:none;stroke:#093a3e;stroke-width:0.258755;stroke-linecap:round;stroke-linejoin:miter;stroke-miterlimit:4;stroke-dasharray:none;stroke-opacity:1"
         d="m 135.30808,75.701753 c 0.85461,-1.999449 2.63798,-1.881456 2.62132,-2.647844"
         id="path32891"
         sodipodi:nodetypes="cc" />
      <path
         style="fill:none;stroke:#093a3e;stroke-width:0.258755;stroke-linecap:round;stroke-linejoin:miter;stroke-miterlimit:4;stroke-dasharray:none;stroke-opacity:1"
         d="m 136.36397,74.295899 c -0.15392,-0.296653 0.32794,-1.212699 1.22977,-2.274274 0.76612,-1.291391 0.62281,-2.24226 0.35761,-3.147487"
         id="path32893"
         sodipodi:nodetypes="ccc" />
      <path
         style="fill:none;stroke:#093a3e;stroke-width:0.258755;stroke-linecap:round;stroke-linejoin:miter;stroke-miterlimit:4;stroke-dasharray:none;stroke-opacity:1"
         d="m 137.59374,72.021625 c 1.03762,-0.04256 1.37507,-0.779061 1.72301,-1.505155"
         id="path32895"
         sodipodi:nodetypes="cc" />
      <path
         style="fill:none;stroke:#093a3e;stroke-width:0.258755;stroke-linecap:round;stroke-linejoin:miter;stroke-miterlimit:4;stroke-dasharray:none;stroke-opacity:1"
         d="m 135.30808,75.701753 c 1.58288,-3.3888 -0.28668,-3.76702 -0.14623,-5.922668"
         id="path32897"
         sodipodi:nodetypes="cc" />
      <path
         style="fill:none;stroke:#093a3e;stroke-width:0.258755;stroke-linecap:round;stroke-linejoin:miter;stroke-miterlimit:4;stroke-dasharray:none;stroke-opacity:1"
         d="m 135.89244,72.720907 c -0.8849,0.140685 -1.07206,-0.222875 -1.32674,-0.53763"
         id="path32899"
         sodipodi:nodetypes="cc" />
      <path
         style="fill:none;stroke:#093a3e;stroke-width:0.258755;stroke-linecap:round;stroke-linejoin:miter;stroke-miterlimit:4;stroke-dasharray:none;stroke-opacity:1"
         d="m 131.15767,77.56562 c -0.63636,-0.945134 -1.27086,-1.890767 -0.55473,-3.198301 1.32906,-0.832265 0.90234,-1.291735 0.99739,-1.86199"
         id="path32953"
         sodipodi:nodetypes="ccc" />
      <path
         style="fill:none;stroke:#093a3e;stroke-width:0.258755;stroke-linecap:round;stroke-linejoin:miter;stroke-miterlimit:4;stroke-dasharray:none;stroke-opacity:1"
         d="m 130.60294,74.367319 c -1.2627,-2.374197 0.39964,-3.4122 -0.26019,-4.497938"
         id="path32955"
         sodipodi:nodetypes="cc" />
      <path
         style="fill:none;stroke:#093a3e;stroke-width:0.258755;stroke-linecap:round;stroke-linejoin:miter;stroke-miterlimit:4;stroke-dasharray:none;stroke-opacity:1"
         d="m 130.28142,73.624444 c -1.13023,-0.27695 -1.03338,-0.537133 -1.20429,-0.836792"
         id="path32957"
         sodipodi:nodetypes="cc" />
      <path
         style="fill:none;stroke:#093a3e;stroke-width:0.258755;stroke-linecap:round;stroke-linejoin:miter;stroke-miterlimit:4;stroke-dasharray:none;stroke-opacity:1"
         d="m 131.15767,77.56562 c -1.06953,-2.017671 -2.00178,-0.532363 -3.83117,-0.811559"
         id="path32959"
         sodipodi:nodetypes="cc" />
      <path
         style="fill:none;stroke:#093a3e;stroke-width:0.258755;stroke-linecap:round;stroke-linejoin:miter;stroke-miterlimit:4;stroke-dasharray:none;stroke-opacity:1"
         d="m 130.15963,76.533674 c -0.0229,-0.898164 -0.59165,-1.632194 -1.74827,-2.189457"
         id="path32961"
         sodipodi:nodetypes="cc" />
      <path
         style="fill:none;stroke:#093a3e;stroke-width:0.258755;stroke-linecap:round;stroke-linejoin:miter;stroke-miterlimit:4;stroke-dasharray:none;stroke-opacity:1"
         d="m 127.41563,72.465012 c 0.8402,0.492756 0.38976,1.356623 0.99573,1.879205 -1.07719,0.142223 -1.92021,0.100179 -2.14306,-0.429865"
         id="path32963"
         sodipodi:nodetypes="ccc" />
      <path
         style="fill:#093a3e;fill-opacity:1;stroke:#093a3e;stroke-width:0.258755;stroke-linecap:butt;stroke-linejoin:miter;stroke-miterlimit:4;stroke-dasharray:none;stroke-opacity:1"
         d="m 126.79821,81.351003 c -2.20959,0.92291 -4.14059,1.989978 -5.70293,3.811243 -2.59359,3.140797 -5.09001,3.635194 -7.59747,4.430257 2.64141,-0.09965 5.31923,-0.448086 8.00436,-3.898888 1.68743,-1.658808 3.49421,-2.764443 5.64681,-3.65699"
         id="path37941"
         sodipodi:nodetypes="ccccc" />
      <path
         style="fill:none;stroke:#093a3e;stroke-width:0.258755;stroke-linecap:round;stroke-linejoin:miter;stroke-miterlimit:4;stroke-dasharray:none;stroke-opacity:1"
         d="m 113.49781,89.592506 c -3.59747,0.226149 -4.84614,2.625747 -4.64852,3.278124 0.0714,0.235847 0.22873,1.741475 0.50789,1.687648 l -0.026,0.007"
         id="path38831"
         sodipodi:nodetypes="cscc" />
      <path
         style="fill:none;stroke:#093a3e;stroke-width:0.258755;stroke-linecap:round;stroke-linejoin:miter;stroke-miterlimit:4;stroke-dasharray:none;stroke-opacity:1"
         d="m 108.83978,92.887099 c -0.531,0.331972 -0.98657,0.745123 -1.05316,1.576906 -0.0933,1.237609 -0.29548,2.310278 -0.94614,2.703727"
         id="path38833"
         sodipodi:nodetypes="ccc" />
      <path
         style="fill:none;stroke:#093a3e;stroke-width:0.258755;stroke-linecap:round;stroke-linejoin:miter;stroke-miterlimit:4;stroke-dasharray:none;stroke-opacity:1"
         d="m 107.78662,94.464005 c -0.907,0.957346 -1.87666,1.732153 -3.11893,1.712777"
         id="path38835"
         sodipodi:nodetypes="cc" />
      <path
         style="fill:none;stroke:#093a3e;stroke-width:0.258755;stroke-linecap:round;stroke-linejoin:miter;stroke-miterlimit:4;stroke-dasharray:none;stroke-opacity:1"
         d="m 111.99465,89.81697 c -7.67547,0.530524 -7.22411,3.098798 -6.60666,4.579743"
         id="path38837"
         sodipodi:nodetypes="cc" />
      <path
         style="fill:none;stroke:#093a3e;stroke-width:0.258755;stroke-linecap:round;stroke-linejoin:miter;stroke-miterlimit:4;stroke-dasharray:none;stroke-opacity:1"
         d="m 105.10719,92.8292 c -0.42873,0.754487 -1.22922,1.267433 -2.46692,1.496308 v 0"
         id="path38839"
         sodipodi:nodetypes="ccc" />
      <path
         style="fill:none;stroke:#093a3e;stroke-width:0.258755;stroke-linecap:round;stroke-linejoin:miter;stroke-miterlimit:4;stroke-dasharray:none;stroke-opacity:1"
         d="m 105.85905,91.37479 c -2.69282,1.04926 -2.90814,0.54065 -3.54073,0.294422"
         id="path38841"
         sodipodi:nodetypes="cc" />
      <path
         style="fill:none;stroke:#093a3e;stroke-width:0.258755;stroke-linecap:round;stroke-linejoin:miter;stroke-miterlimit:4;stroke-dasharray:none;stroke-opacity:1"
         d="m 109.83046,90.043901 c -1.75671,-1.600722 -4.52327,0.0097 -5.37815,-0.853753"
         id="path38843"
         sodipodi:nodetypes="cc" />
      <path
         style="fill:none;stroke:#093a3e;stroke-width:0.258755;stroke-linecap:round;stroke-linejoin:miter;stroke-miterlimit:4;stroke-dasharray:none;stroke-opacity:1"
         d="m 108.88127,89.472711 c -1.7394,-0.847206 -1.6248,-2.936562 -3.3548,-3.131968"
         id="path38845"
         sodipodi:nodetypes="cc" />
      <path
         style="fill:none;stroke:#093a3e;stroke-width:0.258755;stroke-linecap:round;stroke-linejoin:miter;stroke-miterlimit:4;stroke-dasharray:none;stroke-opacity:1"
         d="m 110.75447,89.934933 c -1.71999,0.06197 -1.0527,-5.518449 -5.30794,-5.243366"
         id="path38847"
         sodipodi:nodetypes="cc" />
      <path
         style="fill:none;stroke:#093a3e;stroke-width:0.258755;stroke-linecap:round;stroke-linejoin:miter;stroke-miterlimit:4;stroke-dasharray:none;stroke-opacity:1"
         d="m 107.18446,84.942853 c -0.0168,-1.003041 -1.78744,-0.989275 -1.54832,-1.777787"
         id="path38849"
         sodipodi:nodetypes="cc" />
      <path
         style="fill:none;stroke:#093a3e;stroke-width:0.258755;stroke-linecap:round;stroke-linejoin:miter;stroke-miterlimit:4;stroke-dasharray:none;stroke-opacity:1"
         d="m 108.34292,85.941081 c 0.95001,-1.338132 0.15753,-2.419965 -1.18128,-3.421438"
         id="path38851"
         sodipodi:nodetypes="cc" />
      <ellipse
         style="fill:#093a3e;fill-opacity:1;fill-rule:evenodd;stroke:#093a3e;stroke-width:0.260166;stroke-linecap:round;stroke-linejoin:round;stroke-miterlimit:4;stroke-dasharray:none;stroke-opacity:1;paint-order:stroke fill markers"
         id="path42483"
         cx="-82.015419"
         cy="-107.22421"
         rx="0.23150533"
         ry="0.16136278"
         transform="rotate(165)" />
      <ellipse
         style="fill:#093a3e;fill-opacity:1;fill-rule:evenodd;stroke:#093a3e;stroke-width:0.258755;stroke-linecap:round;stroke-linejoin:round;stroke-miterlimit:4;stroke-dasharray:none;stroke-opacity:1;paint-order:stroke fill markers"
         id="path42485"
         cx="-80.615105"
         cy="-107.68082"
         rx="0.16018419"
         ry="0.10397743"
         transform="rotate(165)" />
      <ellipse
         style="fill:#093a3e;fill-opacity:1;fill-rule:evenodd;stroke:#093a3e;stroke-width:0.258755;stroke-linecap:round;stroke-linejoin:round;stroke-miterlimit:4;stroke-dasharray:none;stroke-opacity:1;paint-order:stroke fill markers"
         id="path42487"
         cx="-79.688911"
         cy="-108.95454"
         rx="0.26384914"
         ry="0.23789178"
         transform="rotate(165)" />
      <ellipse
         style="fill:#093a3e;fill-opacity:1;fill-rule:evenodd;stroke:#093a3e;stroke-width:0.258755;stroke-linecap:round;stroke-linejoin:round;stroke-miterlimit:4;stroke-dasharray:none;stroke-opacity:1;paint-order:stroke fill markers"
         id="path42489"
         cx="-63.852409"
         cy="-120.17771"
         rx="0.34576786"
         ry="0.22698215"
         transform="rotate(157.27424)" />
      <ellipse
         style="fill:#093a3e;fill-opacity:1;fill-rule:evenodd;stroke:#093a3e;stroke-width:0.258755;stroke-linecap:round;stroke-linejoin:round;stroke-miterlimit:4;stroke-dasharray:none;stroke-opacity:1;paint-order:stroke fill markers"
         id="path42491"
         cx="-77.656456"
         cy="-113.15719"
         rx="0.26624238"
         ry="0.29476836"
         transform="rotate(165)" />
      <ellipse
         style="fill:#093a3e;fill-opacity:1;fill-rule:evenodd;stroke:#093a3e;stroke-width:0.258755;stroke-linecap:round;stroke-linejoin:round;stroke-miterlimit:4;stroke-dasharray:none;stroke-opacity:1;paint-order:stroke fill markers"
         id="path42493"
         cx="-74.841888"
         cy="-114.84973"
         rx="0.28525969"
         ry="0.25673372"
         transform="rotate(165)" />
      <ellipse
         style="fill:#093a3e;fill-opacity:1;fill-rule:evenodd;stroke:#093a3e;stroke-width:0.273931;stroke-linecap:round;stroke-linejoin:round;stroke-miterlimit:4;stroke-dasharray:none;stroke-opacity:1;paint-order:stroke fill markers"
         id="path42495"
         cx="-115.37796"
         cy="-77.976875"
         rx="0.13504198"
         ry="0.19209389"
         transform="rotate(-171.37173)" />
      <ellipse
         style="fill:#093a3e;fill-opacity:1;fill-rule:evenodd;stroke:#093a3e;stroke-width:0.258755;stroke-linecap:round;stroke-linejoin:round;stroke-miterlimit:4;stroke-dasharray:none;stroke-opacity:1;paint-order:stroke fill markers"
         id="path42521"
         cx="-128.36618"
         cy="-60.152527"
         rx="0.21212885"
         ry="0.29320231"
         transform="rotate(-163.21232)" />
      <ellipse
         style="fill:#093a3e;fill-opacity:1;fill-rule:evenodd;stroke:#093a3e;stroke-width:0.258755;stroke-linecap:round;stroke-linejoin:round;stroke-miterlimit:4;stroke-dasharray:none;stroke-opacity:1;paint-order:stroke fill markers"
         id="path42523"
         cx="-75.953255"
         cy="-119.96324"
         rx="0.17952093"
         ry="0.16378799"
         transform="rotate(165)" />
      <ellipse
         style="fill:#093a3e;fill-opacity:1;fill-rule:evenodd;stroke:#093a3e;stroke-width:0.199569;stroke-linecap:round;stroke-linejoin:round;stroke-miterlimit:4;stroke-dasharray:none;stroke-opacity:1;paint-order:stroke fill markers"
         id="path42525"
         cx="-82.462807"
         cy="-120.93901"
         rx="0.38390502"
         ry="0.3674702"
         transform="matrix(-0.96259214,0.27095455,-0.24715199,-0.96897673,0,0)" />
      <ellipse
         style="fill:#093a3e;fill-opacity:1;fill-rule:evenodd;stroke:#093a3e;stroke-width:0.199698;stroke-linecap:round;stroke-linejoin:round;stroke-miterlimit:4;stroke-dasharray:none;stroke-opacity:1;paint-order:stroke fill markers"
         id="path42527"
         cx="-72.897552"
         cy="-118.91399"
         rx="0.30563277"
         ry="0.34359127"
         transform="matrix(-0.97452062,0.22429795,-0.29778765,-0.95463214,0,0)" />
      <rect
         style="fill:#6bd6ab;fill-opacity:1;fill-rule:evenodd;stroke:none;stroke-width:0.232377;stroke-linecap:round;stroke-linejoin:round;stroke-miterlimit:4;stroke-dasharray:none;stroke-opacity:1;paint-order:stroke fill markers"
         id="rect43016"
         width="3.3031518"
         height="2.1510713"
         x="-72.29406"
         y="-133.91231"
         ry="0.93848801"
         transform="matrix(-0.87522469,0.48371659,-0.4802325,-0.87714123,0,0)" />
      <rect
         style="fill:#6bd6ab;fill-opacity:1;fill-rule:evenodd;stroke:none;stroke-width:0.232377;stroke-linecap:round;stroke-linejoin:round;stroke-miterlimit:4;stroke-dasharray:none;stroke-opacity:1;paint-order:stroke fill markers"
         id="rect43098"
         width="3.3031518"
         height="2.1510713"
         x="-83.993698"
         y="-122.45515"
         ry="0.93848801"
         transform="matrix(-0.94779399,0.31888328,-0.31511195,-0.94905451,0,0)" />
      <rect
         style="fill:#6bd6ab;fill-opacity:1;fill-rule:evenodd;stroke:none;stroke-width:0.232377;stroke-linecap:round;stroke-linejoin:round;stroke-miterlimit:4;stroke-dasharray:none;stroke-opacity:1;paint-order:stroke fill markers"
         id="rect43100"
         width="3.3031518"
         height="2.1510713"
         x="-35.423222"
         y="-145.32568"
         ry="0.93848801"
         transform="matrix(-0.75438865,0.65642803,-0.65342308,-0.75699292,0,0)" />
      <rect
         style="fill:#6bd6ab;fill-opacity:1;fill-rule:evenodd;stroke:none;stroke-width:0.232377;stroke-linecap:round;stroke-linejoin:round;stroke-miterlimit:4;stroke-dasharray:none;stroke-opacity:1;paint-order:stroke fill markers"
         id="rect43102"
         width="3.3031518"
         height="2.1510713"
         x="-33.007774"
         y="-146.69876"
         ry="0.93848801"
         transform="matrix(-0.72595243,0.68774492,-0.6848528,-0.72868144,0,0)" />
      <ellipse
         style="fill:#a0ced9;fill-opacity:1;fill-rule:evenodd;stroke:none;stroke-width:0.366527;stroke-linecap:round;stroke-linejoin:round;stroke-miterlimit:4;stroke-dasharray:none;stroke-opacity:1;paint-order:stroke fill markers"
         id="path43286"
         cx="-87.629112"
         cy="-129.32864"
         rx="2.0931516"
         ry="1.7618345"
         transform="matrix(-0.91212843,0.40990454,-0.42337734,-0.90595344,0,0)" />
    </g>
  </g>
</svg>
