<?xml version="1.0" encoding="UTF-8" standalone="no"?>
<!-- Created with Inkscape (http://www.inkscape.org/) -->

<svg
   width="168mm"
   height="62mm"
   viewBox="0 0 168 62"
   version="1.1"
   id="svg76198"
   inkscape:version="1.1.1 (3bf5ae0d25, 2021-09-20)"
   sodipodi:docname="infancia_adolescencia.svg"
   xmlns:inkscape="http://www.inkscape.org/namespaces/inkscape"
   xmlns:sodipodi="http://sodipodi.sourceforge.net/DTD/sodipodi-0.dtd"
   xmlns="http://www.w3.org/2000/svg"
   xmlns:svg="http://www.w3.org/2000/svg">
  <sodipodi:namedview
     id="namedview76200"
     pagecolor="#ffffff"
     bordercolor="#666666"
     borderopacity="1.0"
     inkscape:pageshadow="2"
     inkscape:pageopacity="0.0"
     inkscape:pagecheckerboard="0"
     inkscape:document-units="mm"
     showgrid="false"
     showguides="true"
     inkscape:guide-bbox="true"
     inkscape:zoom="0.47914388"
     inkscape:cx="556.20036"
     inkscape:cy="393.41001"
     inkscape:window-width="1366"
     inkscape:window-height="705"
     inkscape:window-x="-8"
     inkscape:window-y="-8"
     inkscape:window-maximized="1"
     inkscape:current-layer="layer1" />
  <defs
     id="defs76195">
    <clipPath
       clipPathUnits="userSpaceOnUse"
       id="clipPath1101">
      <path
         style="fill:none;stroke:#000000;stroke-width:0.264583px;stroke-linecap:butt;stroke-linejoin:miter;stroke-opacity:1"
         d="m 138.93317,199.33269 -0.49976,21.70385 -1.42788,5.35456 1.71346,1.49928 3.85529,21.20409 8.49591,-0.85673 1.99904,-19.49063 -3.06995,-10.70913 4.21226,-4.21226 -4.71202,-4.71202 3.85529,-10.56635 z"
         id="path1103" />
    </clipPath>
    <clipPath
       clipPathUnits="userSpaceOnUse"
       id="clipPath963">
      <path
         style="fill:none;stroke:#000000;stroke-width:0.264583px;stroke-linecap:butt;stroke-linejoin:miter;stroke-opacity:1"
         d="m 178.05721,117.5149 0.28558,22.275 4.99759,25.41635 0.71394,9.13846 27.55818,-0.57115 2.28461,-57.68654 z"
         id="path965" />
    </clipPath>
    <clipPath
       clipPathUnits="userSpaceOnUse"
       id="clipPath77346">
      <g
         id="g77352"
         transform="matrix(1.0951452,0,0,1.0951452,-126.62325,122.43766)">
        <path
           style="fill:none;stroke:#000000;stroke-width:0.264583px;stroke-linecap:butt;stroke-linejoin:miter;stroke-opacity:1"
           d="m 252.58982,87.294655 1.53578,-1.969907 c 2.50118,-1.984835 2.37222,-1.485763 0.45469,-3.734049"
           id="path77348"
           sodipodi:nodetypes="ccc" />
        <path
           style="fill:none;stroke:#000000;stroke-width:0.264583px;stroke-linecap:butt;stroke-linejoin:miter;stroke-opacity:1"
           d="m 254.58029,81.590699 -0.48079,-6.298398 -0.91351,-5.096412 -13.9911,0.721191 3.55788,12.789114 -0.57334,5.145624 1.71686,1.546876 -0.54396,6.493476 0.37397,19.92239 11.55907,-0.71394 0.50996,-25.327956 -3.20551,-3.478009 v 0 -2e-6"
           id="path77350" />
      </g>
    </clipPath>
    <clipPath
       clipPathUnits="userSpaceOnUse"
       id="clipPath101672">
      <path
         style="fill:none;stroke:#000000;stroke-width:0.264583px;stroke-linecap:butt;stroke-linejoin:miter;stroke-opacity:1"
         d="M 632.33996,6.1541602 595.415,98.466561 l -32.30933,15.385399 18.46247,53.8489 38.46351,55.38745 -26.15518,176.93211 192.31751,-10.76979 3.07705,-346.171508 z"
         id="path101674" />
    </clipPath>
    <clipPath
       clipPathUnits="userSpaceOnUse"
       id="clipPath101791">
      <path
         style="fill:none;stroke:#000000;stroke-width:0.264583px;stroke-linecap:butt;stroke-linejoin:miter;stroke-opacity:1"
         d="m -173.85502,-176.9321 -1.53854,181.5477203 -53.84891,6.1541597 59.2338,170.77795 -5.38489,140.77642 L 17.904602,304.77182 -15.3854,-132.31444 Z"
         id="path101793" />
    </clipPath>
    <clipPath
       clipPathUnits="userSpaceOnUse"
       id="clipPath103832">
      <path
         style="fill:none;stroke:#000000;stroke-width:0.264583px;stroke-linecap:butt;stroke-linejoin:miter;stroke-opacity:1"
         d="m -49.530321,305.55808 c 9.068778,-54.02593 8.349138,-97.1435 -0.576951,-146.73826 2.187549,-20.7862 2.762806,-38.3478 3.461729,-56.15671 L -8.9032596,98.047492 C -12.141601,72.616209 -37.440504,60.847407 -28.567701,49.391163 -25.19302,40.355531 -15.318585,35.479721 -23.567447,19.004998 L -42.02994,-7.1501787 C -49.396998,-20.484189 -52.608378,-33.81821 -52.799725,-47.152221 c -3.247787,-17.20488 -6.777487,-30.744879 -10.385134,-43.27144 12.504605,-14.836599 -4.48946,-34.325519 -23.270421,-21.347249 -12.27024,-2.43534 -24.41913,-5.08483 -42.69448,3.07709 -22.20135,-2.30811 -27.04255,19.49509 -31.15544,42.309841 l 3.84635,57.3106181 -20.38565,32.6939779 -22.30884,-17.3085761 -12.69295,18.0778471 25.77055,59.618427 -0.76927,17.693215 9.23124,0.76926 8.8466,8.84661 11.92369,-7.30807 7.6927,0.38464 -5.76953,26.53982 5.00026,4.23098 c -11.04069,47.11054 4.11862,107.3211 23.46273,169.62404 z"
         id="path103834"
         sodipodi:nodetypes="cccccccccccccccccccccccccc" />
    </clipPath>
    <clipPath
       clipPathUnits="userSpaceOnUse"
       id="clipPath106636">
      <path
         style="fill:none;stroke:#000000;stroke-width:2.31573px;stroke-linecap:butt;stroke-linejoin:miter;stroke-opacity:1"
         d="m 624.97232,378.96368 c -7.15803,-4.19948 -13.23245,-6.56854 -18.30514,-14.93872 -0.95515,-4.77999 4.45243,-8.28494 7.78497,-11.99303 l 21.46123,-7.57451 -3.36652,-53.02184 11.78271,-79.11193 -22.30286,-7.99536 c -15.42037,-17.61052 -28.59082,-34.41748 -36.18954,-49.23453 l -6.52253,-5.26011 c -1.9916,-9.36668 2.12816,-14.37195 7.364,-18.93637 l 2.52486,-0.63122 1.26235,-1.47287 -7.15364,-6.10169 4.62885,-5.26011 6.94334,4.20807 28.40457,-54.284233 22.93399,-10.099381 v 27.773327 l -37.24149,45.868067 7.99529,6.10174 -3.99765,6.31212 -9.0473,-6.52253 -3.36651,5.26011 c 10.0498,9.58816 23.75915,28.06376 30.08783,28.61495 11.46314,-1.39904 17.80379,-3.40071 37.87268,-3.7873 l 0.63104,-4.41846 c -7.42724,-2.71454 -14.49206,-5.02001 -20.83001,-15.35949 l 0.421,-6.52253 -8.83701,-3.99769 c -1.41132,-5.89131 -0.0614,-11.78261 1.26245,-17.67392 l 3.36651,-1.26244 c -0.81921,-21.975927 9.55347,-29.839935 21.46114,-35.768688 l 4.62905,-8.836938 10.52024,0.2105 5.47049,3.366468 2.52489,-5.049702 7.57454,4.839295 38.29352,-3.576875 -2.31448,31.13979 7.99538,10.30982 -4.83927,2.10402 c 3.26682,18.76276 -4.86396,24.64124 -14.3075,29.03577 0.33173,9.84901 -2.57099,16.16986 -14.51788,12.62425 l -13.04504,6.31212 0.21004,4.41848 c 9.71478,0.25968 18.66616,2.68258 25.03805,12.41383 2.0212,-17.8846 42.06439,-19.31829 39.13516,11.78264 24.34137,1.08305 28.36955,34.14906 3.78732,41.23918 l -39.13515,-1.26242 c -1.05578,4.34836 -4.33136,8.69672 -7.57456,13.04506 l 0.421,17.25313 -7.57457,42.92243 14.72832,37.87273 c 11.65657,2.0567 18.43107,7.27156 28.40455,14.9387 0.47264,5.51415 -2.94804,10.37954 -5.68097,15.35949 -20.1189,7.28149 -35.05873,7.9041 -51.54897,10.5202 -21.87836,-0.31946 -43.04384,0.34143 -69.22277,-5.89131 z"
         id="path106638"
         sodipodi:nodetypes="ccccccccccccccccccccccccccccccccccccccccccccccccccccccccc" />
    </clipPath>
  </defs>
  <g
     inkscape:label="Camada 1"
     inkscape:groupmode="layer"
     id="layer1">
    <text
       xml:space="preserve"
       style="font-size:13.219px;line-height:1.25;font-family:'Microsoft JhengHei UI';-inkscape-font-specification:'Microsoft JhengHei UI';letter-spacing:0px;fill:#d81159;fill-opacity:1;stroke-width:0.330473"
       x="0.38310722"
       y="11.143039"
       id="text1459"
       transform="scale(1.009305,0.99078078)"><tspan
         sodipodi:role="line"
         id="tspan1457"
         style="font-style:normal;font-variant:normal;font-weight:bold;font-stretch:normal;font-family:'Century Gothic';-inkscape-font-specification:'Century Gothic';fill:#d81159;fill-opacity:1;stroke-width:0.330473"
         x="0.38310722"
         y="11.143039">Alimentação saudável na </tspan></text>
    <rect
       style="fill:#330539;fill-opacity:1;fill-rule:evenodd;stroke-width:0.877735"
       id="rect42677"
       width="83.862633"
       height="17.405657"
       x="-3.442879"
       y="28.162579"
       transform="matrix(0.98949634,-0.14455789,0.1498935,0.98870215,0,0)" />
    <text
       xml:space="preserve"
       style="font-size:15.1886px;line-height:1.25;font-family:'Microsoft JhengHei UI';-inkscape-font-specification:'Microsoft JhengHei UI';letter-spacing:0px;stroke-width:0.379714"
       x="2.0185032"
       y="43.852108"
       id="text2243"
       transform="matrix(0.99831001,-0.1458455,0.14857231,0.97998757,0,0)"><tspan
         sodipodi:role="line"
         id="tspan2241"
         style="font-style:normal;font-variant:normal;font-weight:bold;font-stretch:normal;font-family:Ebrima;-inkscape-font-specification:'Ebrima Bold';fill:#ff7f35;fill-opacity:1;stroke-width:0.379714"
         x="2.0185032"
         y="43.852108">INFÂNCIA   </tspan><tspan
         sodipodi:role="line"
         style="font-style:normal;font-variant:normal;font-weight:bold;font-stretch:normal;font-family:Ebrima;-inkscape-font-specification:'Ebrima Bold';fill:#ff7f35;fill-opacity:1;stroke-width:0.379714"
         x="2.0185032"
         y="64.769508"
         id="tspan27893" /></text>
    <text
       xml:space="preserve"
       style="font-size:13.6312px;line-height:1.25;font-family:'Microsoft JhengHei UI';-inkscape-font-specification:'Microsoft JhengHei UI';letter-spacing:0px;stroke-width:0.340779"
       x="89.182182"
       y="28.352762"
       id="text86780"
       transform="matrix(1.0093042,-0.00127857,0.00130247,0.99077993,0,0)"><tspan
         sodipodi:role="line"
         id="tspan86778"
         style="font-style:normal;font-variant:normal;font-weight:bold;font-stretch:normal;font-family:'Century Gothic';-inkscape-font-specification:'Century Gothic Bold';fill:#d81159;fill-opacity:1;stroke-width:0.340779"
         x="89.182182"
         y="28.352762">e na</tspan></text>
    <g
       id="g6257"
       transform="matrix(0.52716574,0.0022854,-0.00232814,0.51749043,-2.0575319,1.8951529)">
      <rect
         style="fill:#330539;fill-opacity:1;fill-rule:evenodd;stroke-width:1.99357"
         id="rect42573"
         width="231.19197"
         height="32.569904"
         x="46.925224"
         y="90.411003"
         transform="rotate(-8.6578881)" />
      <text
         xml:space="preserve"
         style="font-size:28.8362px;line-height:1.25;font-family:'Microsoft JhengHei UI';-inkscape-font-specification:'Microsoft JhengHei UI';letter-spacing:0px;fill:#aaddee;fill-opacity:0.8;stroke-width:0.720905"
         x="55.519005"
         y="117.58397"
         id="text32379"
         transform="rotate(-8.6578881)"><tspan
           sodipodi:role="line"
           id="tspan32377"
           style="font-style:normal;font-variant:normal;font-weight:bold;font-stretch:normal;font-family:Ebrima;-inkscape-font-specification:'Ebrima Bold';fill:#ff7f35;fill-opacity:1;stroke-width:0.720905"
           x="55.519005"
           y="117.58397">ADOLESCÊNCIA</tspan></text>
    </g>
  </g>
</svg>
