<?xml version="1.0" encoding="UTF-8" standalone="no"?>
<!-- Created with Inkscape (http://www.inkscape.org/) -->

<svg
   width="30mm"
   height="37mm"
   viewBox="0 0 30 37"
   version="1.1"
   id="svg1333"
   inkscape:version="1.1.1 (3bf5ae0d25, 2021-09-20)"
   sodipodi:docname="molecula.svg"
   xmlns:inkscape="http://www.inkscape.org/namespaces/inkscape"
   xmlns:sodipodi="http://sodipodi.sourceforge.net/DTD/sodipodi-0.dtd"
   xmlns="http://www.w3.org/2000/svg"
   xmlns:svg="http://www.w3.org/2000/svg">
  <sodipodi:namedview
     id="namedview1335"
     pagecolor="#ffffff"
     bordercolor="#666666"
     borderopacity="1.0"
     inkscape:pageshadow="2"
     inkscape:pageopacity="0.0"
     inkscape:pagecheckerboard="0"
     inkscape:document-units="mm"
     showgrid="false"
     inkscape:zoom="1.9456229"
     inkscape:cx="165.4997"
     inkscape:cy="68.101584"
     inkscape:window-width="1366"
     inkscape:window-height="705"
     inkscape:window-x="-8"
     inkscape:window-y="-8"
     inkscape:window-maximized="1"
     inkscape:current-layer="layer1" />
  <defs
     id="defs1330" />
  <g
     inkscape:label="Camada 1"
     inkscape:groupmode="layer"
     id="layer1">
    <circle
       style="opacity:0.235;fill:#909cc2;fill-opacity:1;fill-rule:evenodd;stroke-width:0.761585"
       id="circle10092"
       cx="11.008351"
       cy="25.848722"
       r="9.6783562" />
    <path
       id="path5130"
       style="opacity:0.920489;fill:#093a3e;fill-opacity:1;stroke:none;stroke-width:0.152377px;stroke-linecap:butt;stroke-linejoin:miter;stroke-opacity:1"
       d="m 26.973637,4.4752158 -0.396725,2.8951805 -4.342764,0.7999876 -0.457134,4.6094291 -3.618984,4.34278 -5.980835,-0.03816 -3.0475588,5.257044 -2.5523311,0.03806 0.024675,0.705647 2.4895384,-0.01996 2.9380355,5.142763 6.395115,0.03806 3.12374,-5.218941 4.076111,-0.761891 c 1.505974,2.261935 4.411307,-0.70232 1.942826,-2.095198 L 28.06256,15.217735 22.500772,12.77969 22.881717,8.7416733 27.224496,7.979781 27.681622,4.6274674 Z m -4.814193,9.0072612 5.158224,2.222277 -0.511587,4.323433 c -0.671154,0.237897 -1.215307,0.619429 -1.333612,1.481511 L 21.445474,22.209992 18.69791,17.54996 Z m -9.639391,4.363904 5.561788,0.07623 2.668998,4.741876 -2.668998,4.78175 -5.561788,-0.03806 -2.7338771,-4.746044 z m 14.533041,2.885662 a 0.80950783,0.81426964 0 0 1 0.809511,0.814261 0.80950783,0.81426964 0 0 1 -0.809511,0.814272 0.80950783,0.81426964 0 0 1 -0.809504,-0.814272 0.80950783,0.81426964 0 0 1 0.809504,-0.814261 z" />
    <path
       id="path7481"
       style="fill:#6bd6ab;fill-opacity:1;fill-rule:evenodd;stroke:none;stroke-width:0.867438"
       d="M 27.593484,1.7749136 A 1.538065,1.5142559 0 0 0 26.055417,3.2891711 1.538065,1.5142559 0 0 0 27.593484,4.803424 1.538065,1.5142559 0 0 0 29.131543,3.2891711 1.538065,1.5142559 0 0 0 27.593484,1.7749136 Z m 0.02856,0.7333212 A 0.79522232,0.79522247 0 0 1 28.41726,3.3034546 0.79522232,0.79522247 0 0 1 27.622043,4.0986805 0.79522232,0.79522247 0 0 1 26.826819,3.3034546 0.79522232,0.79522247 0 0 1 27.622044,2.5082348 Z" />
    <rect
       style="fill:#6bd6ab;fill-opacity:1;fill-rule:evenodd;stroke:none;stroke-width:0.564679"
       id="rect10345"
       width="4.8860831"
       height="0.79233658"
       x="25.919453"
       y="4.8530865"
       ry="0.39616829"
       transform="rotate(22.173354)" />
    <path
       id="path9658"
       style="fill:#6bd6ab;fill-opacity:1;fill-rule:evenodd;stroke:none;stroke-width:0.867438"
       d="m 5.3358984,21.234315 a 1.538065,1.5142559 0 0 0 -1.5380669,1.514262 1.538065,1.5142559 0 0 0 1.5380669,1.514252 1.538065,1.5142559 0 0 0 1.5380669,-1.514252 1.538065,1.5142559 0 0 0 -1.5380669,-1.514262 z m 0.02856,0.733319 a 0.79522232,0.79522247 0 0 1 0.7952243,0.79522 0.79522232,0.79522247 0 0 1 -0.7952243,0.795229 0.79522232,0.79522247 0 0 1 -0.795232,-0.795229 0.79522232,0.79522247 0 0 1 0.795232,-0.79522 z" />
    <rect
       style="fill:#6bd6ab;fill-opacity:1;fill-rule:evenodd;stroke:none;stroke-width:0.564679"
       id="rect10263"
       width="4.8860831"
       height="0.79233658"
       x="-13.807849"
       y="27.950872"
       ry="0.39616829"
       transform="rotate(-59.004352)" />
    <rect
       style="fill:#6bd6ab;fill-opacity:1;fill-rule:evenodd;stroke:none;stroke-width:0.564679"
       id="rect10347"
       width="4.8860831"
       height="0.79233658"
       x="24.923723"
       y="1.2713811"
       ry="0.39616829"
       transform="rotate(60)" />
    <rect
       style="fill:#6bd6ab;fill-opacity:1;fill-rule:evenodd;stroke:none;stroke-width:0.564679"
       id="rect10349"
       width="4.8860831"
       height="0.79233658"
       x="12.760569"
       y="18.559072"
       ry="0.39616829" />
  </g>
</svg>
