<?xml version="1.0" encoding="UTF-8" standalone="no"?>
<!-- Created with Inkscape (http://www.inkscape.org/) -->

<svg
   width="30mm"
   height="30mm"
   viewBox="0 0 30 30"
   version="1.1"
   id="svg1606"
   inkscape:version="1.1.1 (3bf5ae0d25, 2021-09-20)"
   sodipodi:docname="neuronio.svg"
   xmlns:inkscape="http://www.inkscape.org/namespaces/inkscape"
   xmlns:sodipodi="http://sodipodi.sourceforge.net/DTD/sodipodi-0.dtd"
   xmlns="http://www.w3.org/2000/svg"
   xmlns:svg="http://www.w3.org/2000/svg">
  <sodipodi:namedview
     id="namedview1608"
     pagecolor="#ffffff"
     bordercolor="#666666"
     borderopacity="1.0"
     inkscape:pageshadow="2"
     inkscape:pageopacity="0.0"
     inkscape:pagecheckerboard="0"
     inkscape:document-units="mm"
     showgrid="false"
     inkscape:zoom="1.9456229"
     inkscape:cx="51.397422"
     inkscape:cy="108.19157"
     inkscape:window-width="1366"
     inkscape:window-height="705"
     inkscape:window-x="-8"
     inkscape:window-y="-8"
     inkscape:window-maximized="1"
     inkscape:current-layer="layer1" />
  <defs
     id="defs1603" />
  <g
     inkscape:label="Camada 1"
     inkscape:groupmode="layer"
     id="layer1">
    <circle
       style="opacity:0.235;fill:#909cc2;fill-opacity:1;fill-rule:evenodd;stroke-width:0.727069"
       id="circle43856"
       cx="14.110323"
       cy="18.319971"
       r="9.2397175" />
    <g
       id="g44066"
       transform="matrix(0.67314556,-0.27478042,0.27478042,0.67314556,-92.685557,-7.5575753)">
      <path
         style="fill:#093a3e;fill-opacity:1;stroke:#093a3e;stroke-width:0.258755;stroke-linecap:butt;stroke-linejoin:miter;stroke-miterlimit:4;stroke-dasharray:none;stroke-opacity:1"
         d="m 140.5597,83.455025 c -2.3306,-1.861739 -2.78422,-3.644264 -1.35327,-5.985661 l -0.90923,0.243628 c -2.90955,0.305656 -2.65408,-1.16641 -2.98912,-2.011239 -1.56793,2.365856 -3.1101,2.937099 -4.15041,1.863867 0.39637,1.862882 0.24228,2.602292 -1.01151,3.083206 -1.5054,0.259174 -2.36106,0.476444 -3.34795,0.702177 l 0.35077,0.685622 c 0.85016,-0.186766 1.53552,-0.645767 2.95045,0.100415 2.54481,1.498561 1.16797,2.740668 0.69411,3.837367 1.83475,-1.81426 3.98059,-1.993733 4.82342,-0.443209 l 0.5686,1.03098 c 0.26124,-3.155473 2.29419,-3.958258 4.37414,-3.107153 z"
         id="path26104"
         sodipodi:nodetypes="ccccccccccccc" />
      <path
         style="fill:none;stroke:#093a3e;stroke-width:0.258755;stroke-linecap:round;stroke-linejoin:round;stroke-miterlimit:4;stroke-dasharray:none;stroke-opacity:1"
         d="m 136.18556,86.562178 c -0.11917,1.043989 0.16829,2.209413 1.17115,2.916011 0.93978,0.231595 2.01153,-0.348983 2.46271,0.774047"
         id="path29160"
         sodipodi:nodetypes="ccc" />
      <path
         style="fill:none;stroke:#093a3e;stroke-width:0.264505;stroke-linecap:round;stroke-linejoin:round;stroke-miterlimit:4;stroke-dasharray:none;stroke-opacity:1"
         d="m 139.04344,91.824482 c -0.14082,-0.737422 -0.43478,-1.270464 -0.95809,-1.497406 0.37386,0.658367 0.25785,0.978879 0.0238,1.023836"
         id="path29162"
         sodipodi:nodetypes="ccc" />
      <path
         style="fill:none;stroke:#093a3e;stroke-width:0.258755;stroke-linecap:round;stroke-linejoin:round;stroke-miterlimit:4;stroke-dasharray:none;stroke-opacity:1"
         d="m 138.08535,90.327076 c -0.7965,-0.316448 -0.5977,-0.496261 -0.72864,-0.848887 v 0"
         id="path29164"
         sodipodi:nodetypes="ccc" />
      <path
         style="fill:none;stroke:#093a3e;stroke-width:0.264505;stroke-linecap:round;stroke-linejoin:round;stroke-miterlimit:4;stroke-dasharray:none;stroke-opacity:1"
         d="m 136.61602,88.688223 c 0.48241,2.36654 -1.29928,2.631894 -0.17169,4.918574"
         id="path29978"
         sodipodi:nodetypes="cc" />
      <path
         style="fill:none;stroke:#093a3e;stroke-width:0.258755;stroke-linecap:round;stroke-linejoin:round;stroke-miterlimit:4;stroke-dasharray:none;stroke-opacity:1"
         d="m 136.22416,87.693411 c -0.49853,0.822916 -0.99772,1.095252 -1.4969,1.375608 -0.71951,1.125299 0.93775,1.177046 0.62832,2.44891"
         id="path30222"
         sodipodi:nodetypes="ccc" />
      <path
         style="fill:none;stroke:#093a3e;stroke-width:0.264505;stroke-linecap:round;stroke-linejoin:round;stroke-miterlimit:4;stroke-dasharray:none;stroke-opacity:1"
         d="m 134.54021,89.694003 c -0.61983,0.505873 0.20745,1.860875 0.40515,2.838752"
         id="path30390"
         sodipodi:nodetypes="cc" />
      <path
         style="fill:none;stroke:#093a3e;stroke-width:0.258755;stroke-linecap:round;stroke-linejoin:round;stroke-miterlimit:4;stroke-dasharray:none;stroke-opacity:1"
         d="m 134.72726,89.069019 c -1.72612,0.681386 -1.22321,2.471773 -2.56493,2.845122"
         id="path30392"
         sodipodi:nodetypes="cc" />
      <path
         style="fill:none;stroke:#093a3e;stroke-width:0.258755;stroke-linecap:round;stroke-linejoin:round;stroke-miterlimit:4;stroke-dasharray:none;stroke-opacity:1"
         d="m 133.32462,90.542973 c -0.65302,0.06868 -1.35028,0.399019 -1.96146,0.207066"
         id="path30394"
         sodipodi:nodetypes="cc" />
      <path
         style="fill:none;stroke:#093a3e;stroke-width:0.264505;stroke-linecap:round;stroke-linejoin:round;stroke-miterlimit:4;stroke-dasharray:none;stroke-opacity:1"
         d="m 130.79354,85.974407 c -0.60709,2.442872 -1.05131,2.575636 -1.5356,2.771281"
         id="path31284"
         sodipodi:nodetypes="cc" />
      <path
         style="fill:none;stroke:#093a3e;stroke-width:0.258755;stroke-linecap:round;stroke-linejoin:round;stroke-miterlimit:4;stroke-dasharray:none;stroke-opacity:1"
         d="m 130.34542,87.438873 c 0.67205,1.472234 0.61958,2.668241 -0.052,3.628202"
         id="path31286"
         sodipodi:nodetypes="cc" />
      <path
         style="fill:none;stroke:#093a3e;stroke-width:0.258755;stroke-linecap:round;stroke-linejoin:round;stroke-miterlimit:4;stroke-dasharray:none;stroke-opacity:1"
         d="m 130.66492,88.292016 c 0.42286,0.528959 0.84049,0.937459 1.33014,0.822801"
         id="path31288"
         sodipodi:nodetypes="cc" />
      <path
         style="fill:none;stroke:#093a3e;stroke-width:0.264505;stroke-linecap:round;stroke-linejoin:round;stroke-miterlimit:4;stroke-dasharray:none;stroke-opacity:1"
         d="m 130.79354,85.974407 c -1.50455,1.881016 -2.48417,0.852472 -3.3053,3.147028"
         id="path31342"
         sodipodi:nodetypes="cc" />
      <path
         style="fill:none;stroke:#093a3e;stroke-width:0.264505;stroke-linecap:round;stroke-linejoin:round;stroke-miterlimit:4;stroke-dasharray:none;stroke-opacity:1"
         d="m 128.60166,87.541079 c -1.12175,0.502568 -1.54309,-0.02388 -1.85691,-0.386125"
         id="path31344"
         sodipodi:nodetypes="cc" />
      <path
         style="fill:none;stroke:#093a3e;stroke-width:0.258755;stroke-linecap:round;stroke-linejoin:miter;stroke-miterlimit:4;stroke-dasharray:none;stroke-opacity:1"
         d="m 140.5597,83.455025 c 0.79622,0.390765 1.34185,1.064186 1.38458,2.304821 -0.47681,1.166322 1.00636,1.782495 0.922,2.706175"
         id="path32861"
         sodipodi:nodetypes="ccc" />
      <path
         style="fill:none;stroke:#093a3e;stroke-width:0.258755;stroke-linecap:round;stroke-linejoin:miter;stroke-miterlimit:4;stroke-dasharray:none;stroke-opacity:1"
         d="m 141.94428,85.759846 c 0.13251,0.360026 0.41151,0.605568 0.91004,0.898069 0.37108,0.147917 0.72671,0.136461 1.06622,-0.04128"
         id="path32863"
         sodipodi:nodetypes="ccc" />
      <path
         style="fill:none;stroke:#093a3e;stroke-width:0.258755;stroke-linecap:round;stroke-linejoin:miter;stroke-miterlimit:4;stroke-dasharray:none;stroke-opacity:1"
         d="m 142.85432,86.657915 c 0.79471,0.554897 1.0173,1.263092 1.10858,2.006473"
         id="path32865"
         sodipodi:nodetypes="cc" />
      <path
         style="fill:none;stroke:#093a3e;stroke-width:0.258755;stroke-linecap:round;stroke-linejoin:miter;stroke-miterlimit:4;stroke-dasharray:none;stroke-opacity:1"
         d="m 141.40405,84.100622 c 0.7717,0.351286 1.4814,0.77313 2.3696,0.991851"
         id="path32867"
         sodipodi:nodetypes="cc" />
      <path
         style="fill:none;stroke:#093a3e;stroke-width:0.258755;stroke-linecap:round;stroke-linejoin:miter;stroke-miterlimit:4;stroke-dasharray:none;stroke-opacity:1"
         d="m 145.52189,84.79546 c -0.47773,0.576742 -1.10337,0.480646 -1.74824,0.297015 1.25423,0.591611 0.80431,1.504605 1.8928,2.282779"
         id="path32869"
         sodipodi:nodetypes="ccc" />
      <path
         style="fill:none;stroke:#093a3e;stroke-width:0.258755;stroke-linecap:round;stroke-linejoin:miter;stroke-miterlimit:4;stroke-dasharray:none;stroke-opacity:1"
         d="m 140.5597,83.455025 c 0.63133,-0.03787 1.31835,0.173144 1.77304,-0.654053 -0.37051,-0.961649 -0.32265,-1.764756 0.33898,-2.335282"
         id="path32871"
         sodipodi:nodetypes="ccc" />
      <path
         style="fill:none;stroke:#093a3e;stroke-width:0.258755;stroke-linecap:round;stroke-linejoin:miter;stroke-miterlimit:4;stroke-dasharray:none;stroke-opacity:1"
         d="m 142.33274,82.800972 c 0.57576,-0.692641 1.40649,-1.010525 2.44145,-1.028258 0.22181,0.550345 0.34273,1.152681 1.28567,1.331389"
         id="path32873"
         sodipodi:nodetypes="ccc" />
      <path
         style="fill:none;stroke:#093a3e;stroke-width:0.258755;stroke-linecap:round;stroke-linejoin:miter;stroke-miterlimit:4;stroke-dasharray:none;stroke-opacity:1"
         d="m 144.77419,81.772714 c 0.77162,-0.179252 1.10866,-0.699606 1.32021,-1.318471"
         id="path32875"
         sodipodi:nodetypes="cc" />
      <path
         style="fill:none;stroke:#093a3e;stroke-width:0.258755;stroke-linecap:round;stroke-linejoin:miter;stroke-miterlimit:4;stroke-dasharray:none;stroke-opacity:1"
         d="m 139.20643,77.469364 c 0.41053,-0.240239 0.73406,-0.579809 1.56699,-0.708291 0.43267,0.03772 0.85304,0.189388 1.22231,0.814396 -0.14537,0.558532 0.087,1.143282 0.546,1.743763"
         id="path32877"
         sodipodi:nodetypes="cccc" />
      <path
         style="fill:none;stroke:#093a3e;stroke-width:0.258755;stroke-linecap:round;stroke-linejoin:miter;stroke-miterlimit:4;stroke-dasharray:none;stroke-opacity:1"
         d="m 141.99573,77.575469 c 0.70825,-0.169445 1.21591,0.369174 1.60025,1.343148"
         id="path32879"
         sodipodi:nodetypes="cc" />
      <path
         style="fill:none;stroke:#093a3e;stroke-width:0.258755;stroke-linecap:round;stroke-linejoin:miter;stroke-miterlimit:4;stroke-dasharray:none;stroke-opacity:1"
         d="m 140.77342,76.761073 c 0.34421,-0.08696 0.60334,-0.49147 0.85641,-0.918562 -0.10812,-0.840481 -0.53495,-1.826027 0.0155,-2.366745"
         id="path32881"
         sodipodi:nodetypes="ccc" />
      <path
         style="fill:none;stroke:#093a3e;stroke-width:0.258755;stroke-linecap:round;stroke-linejoin:miter;stroke-miterlimit:4;stroke-dasharray:none;stroke-opacity:1"
         d="m 141.62983,75.842511 c 0.24575,-0.300404 0.45522,-0.61144 1.14935,-0.780484 0.94684,-0.05299 1.61702,0.221144 2.05649,0.768071"
         id="path32883"
         sodipodi:nodetypes="ccc" />
      <path
         style="fill:none;stroke:#093a3e;stroke-width:0.258755;stroke-linecap:round;stroke-linejoin:miter;stroke-miterlimit:4;stroke-dasharray:none;stroke-opacity:1"
         d="m 142.77918,75.062027 c 0.82001,-0.647567 0.66939,-1.267892 0.34198,-1.883255"
         id="path32885"
         sodipodi:nodetypes="cc" />
      <path
         style="fill:none;stroke:#093a3e;stroke-width:0.258755;stroke-linecap:round;stroke-linejoin:miter;stroke-miterlimit:4;stroke-dasharray:none;stroke-opacity:1"
         d="m 139.20643,77.469364 c 0.64354,-0.630539 0.96171,-1.497943 0.25335,-3.112647 -0.71439,-0.452331 -0.65068,-0.881462 -0.59187,-1.180205"
         id="path32887"
         sodipodi:nodetypes="ccc" />
      <path
         style="fill:none;stroke:#093a3e;stroke-width:0.258755;stroke-linecap:round;stroke-linejoin:miter;stroke-miterlimit:4;stroke-dasharray:none;stroke-opacity:1"
         d="m 139.45978,74.356717 c 0.56916,-0.195278 0.70695,-0.7379 0.83637,-1.287267"
         id="path32889"
         sodipodi:nodetypes="cc" />
      <path
         style="fill:none;stroke:#093a3e;stroke-width:0.258755;stroke-linecap:round;stroke-linejoin:miter;stroke-miterlimit:4;stroke-dasharray:none;stroke-opacity:1"
         d="m 135.30808,75.701753 c 0.85461,-1.999449 2.63798,-1.881456 2.62132,-2.647844"
         id="path32891"
         sodipodi:nodetypes="cc" />
      <path
         style="fill:none;stroke:#093a3e;stroke-width:0.258755;stroke-linecap:round;stroke-linejoin:miter;stroke-miterlimit:4;stroke-dasharray:none;stroke-opacity:1"
         d="m 136.36397,74.295899 c -0.15392,-0.296653 0.32794,-1.212699 1.22977,-2.274274 0.76612,-1.291391 0.62281,-2.24226 0.35761,-3.147487"
         id="path32893"
         sodipodi:nodetypes="ccc" />
      <path
         style="fill:none;stroke:#093a3e;stroke-width:0.258755;stroke-linecap:round;stroke-linejoin:miter;stroke-miterlimit:4;stroke-dasharray:none;stroke-opacity:1"
         d="m 137.59374,72.021625 c 1.03762,-0.04256 1.37507,-0.779061 1.72301,-1.505155"
         id="path32895"
         sodipodi:nodetypes="cc" />
      <path
         style="fill:none;stroke:#093a3e;stroke-width:0.258755;stroke-linecap:round;stroke-linejoin:miter;stroke-miterlimit:4;stroke-dasharray:none;stroke-opacity:1"
         d="m 135.30808,75.701753 c 1.58288,-3.3888 -0.28668,-3.76702 -0.14623,-5.922668"
         id="path32897"
         sodipodi:nodetypes="cc" />
      <path
         style="fill:none;stroke:#093a3e;stroke-width:0.258755;stroke-linecap:round;stroke-linejoin:miter;stroke-miterlimit:4;stroke-dasharray:none;stroke-opacity:1"
         d="m 135.89244,72.720907 c -0.8849,0.140685 -1.07206,-0.222875 -1.32674,-0.53763"
         id="path32899"
         sodipodi:nodetypes="cc" />
      <path
         style="fill:none;stroke:#093a3e;stroke-width:0.258755;stroke-linecap:round;stroke-linejoin:miter;stroke-miterlimit:4;stroke-dasharray:none;stroke-opacity:1"
         d="m 131.15767,77.56562 c -0.63636,-0.945134 -1.27086,-1.890767 -0.55473,-3.198301 1.32906,-0.832265 0.90234,-1.291735 0.99739,-1.86199"
         id="path32953"
         sodipodi:nodetypes="ccc" />
      <path
         style="fill:none;stroke:#093a3e;stroke-width:0.258755;stroke-linecap:round;stroke-linejoin:miter;stroke-miterlimit:4;stroke-dasharray:none;stroke-opacity:1"
         d="m 130.60294,74.367319 c -1.2627,-2.374197 0.39964,-3.4122 -0.26019,-4.497938"
         id="path32955"
         sodipodi:nodetypes="cc" />
      <path
         style="fill:none;stroke:#093a3e;stroke-width:0.258755;stroke-linecap:round;stroke-linejoin:miter;stroke-miterlimit:4;stroke-dasharray:none;stroke-opacity:1"
         d="m 130.28142,73.624444 c -1.13023,-0.27695 -1.03338,-0.537133 -1.20429,-0.836792"
         id="path32957"
         sodipodi:nodetypes="cc" />
      <path
         style="fill:none;stroke:#093a3e;stroke-width:0.258755;stroke-linecap:round;stroke-linejoin:miter;stroke-miterlimit:4;stroke-dasharray:none;stroke-opacity:1"
         d="m 131.15767,77.56562 c -1.06953,-2.017671 -2.00178,-0.532363 -3.83117,-0.811559"
         id="path32959"
         sodipodi:nodetypes="cc" />
      <path
         style="fill:none;stroke:#093a3e;stroke-width:0.258755;stroke-linecap:round;stroke-linejoin:miter;stroke-miterlimit:4;stroke-dasharray:none;stroke-opacity:1"
         d="m 130.15963,76.533674 c -0.0229,-0.898164 -0.59165,-1.632194 -1.74827,-2.189457"
         id="path32961"
         sodipodi:nodetypes="cc" />
      <path
         style="fill:none;stroke:#093a3e;stroke-width:0.258755;stroke-linecap:round;stroke-linejoin:miter;stroke-miterlimit:4;stroke-dasharray:none;stroke-opacity:1"
         d="m 127.41563,72.465012 c 0.8402,0.492756 0.38976,1.356623 0.99573,1.879205 -1.07719,0.142223 -1.92021,0.100179 -2.14306,-0.429865"
         id="path32963"
         sodipodi:nodetypes="ccc" />
      <path
         style="fill:#093a3e;fill-opacity:1;stroke:#093a3e;stroke-width:0.258755;stroke-linecap:butt;stroke-linejoin:miter;stroke-miterlimit:4;stroke-dasharray:none;stroke-opacity:1"
         d="m 126.79821,81.351003 c -2.20959,0.92291 -4.14059,1.989978 -5.70293,3.811243 -2.59359,3.140797 -5.09001,3.635194 -7.59747,4.430257 2.64141,-0.09965 5.31923,-0.448086 8.00436,-3.898888 1.68743,-1.658808 3.49421,-2.764443 5.64681,-3.65699"
         id="path37941"
         sodipodi:nodetypes="ccccc" />
      <path
         style="fill:none;stroke:#093a3e;stroke-width:0.258755;stroke-linecap:round;stroke-linejoin:miter;stroke-miterlimit:4;stroke-dasharray:none;stroke-opacity:1"
         d="m 113.49781,89.592506 c -3.59747,0.226149 -4.84614,2.625747 -4.64852,3.278124 0.0714,0.235847 0.22873,1.741475 0.50789,1.687648 l -0.026,0.007"
         id="path38831"
         sodipodi:nodetypes="cscc" />
      <path
         style="fill:none;stroke:#093a3e;stroke-width:0.258755;stroke-linecap:round;stroke-linejoin:miter;stroke-miterlimit:4;stroke-dasharray:none;stroke-opacity:1"
         d="m 108.83978,92.887099 c -0.531,0.331972 -0.98657,0.745123 -1.05316,1.576906 -0.0933,1.237609 -0.29548,2.310278 -0.94614,2.703727"
         id="path38833"
         sodipodi:nodetypes="ccc" />
      <path
         style="fill:none;stroke:#093a3e;stroke-width:0.258755;stroke-linecap:round;stroke-linejoin:miter;stroke-miterlimit:4;stroke-dasharray:none;stroke-opacity:1"
         d="m 107.78662,94.464005 c -0.907,0.957346 -1.87666,1.732153 -3.11893,1.712777"
         id="path38835"
         sodipodi:nodetypes="cc" />
      <path
         style="fill:none;stroke:#093a3e;stroke-width:0.258755;stroke-linecap:round;stroke-linejoin:miter;stroke-miterlimit:4;stroke-dasharray:none;stroke-opacity:1"
         d="m 111.99465,89.81697 c -7.67547,0.530524 -7.22411,3.098798 -6.60666,4.579743"
         id="path38837"
         sodipodi:nodetypes="cc" />
      <path
         style="fill:none;stroke:#093a3e;stroke-width:0.258755;stroke-linecap:round;stroke-linejoin:miter;stroke-miterlimit:4;stroke-dasharray:none;stroke-opacity:1"
         d="m 105.10719,92.8292 c -0.42873,0.754487 -1.22922,1.267433 -2.46692,1.496308 v 0"
         id="path38839"
         sodipodi:nodetypes="ccc" />
      <path
         style="fill:none;stroke:#093a3e;stroke-width:0.258755;stroke-linecap:round;stroke-linejoin:miter;stroke-miterlimit:4;stroke-dasharray:none;stroke-opacity:1"
         d="m 105.85905,91.37479 c -2.69282,1.04926 -2.90814,0.54065 -3.54073,0.294422"
         id="path38841"
         sodipodi:nodetypes="cc" />
      <path
         style="fill:none;stroke:#093a3e;stroke-width:0.258755;stroke-linecap:round;stroke-linejoin:miter;stroke-miterlimit:4;stroke-dasharray:none;stroke-opacity:1"
         d="m 109.83046,90.043901 c -1.75671,-1.600722 -4.52327,0.0097 -5.37815,-0.853753"
         id="path38843"
         sodipodi:nodetypes="cc" />
      <path
         style="fill:none;stroke:#093a3e;stroke-width:0.258755;stroke-linecap:round;stroke-linejoin:miter;stroke-miterlimit:4;stroke-dasharray:none;stroke-opacity:1"
         d="m 108.88127,89.472711 c -1.7394,-0.847206 -1.6248,-2.936562 -3.3548,-3.131968"
         id="path38845"
         sodipodi:nodetypes="cc" />
      <path
         style="fill:none;stroke:#093a3e;stroke-width:0.258755;stroke-linecap:round;stroke-linejoin:miter;stroke-miterlimit:4;stroke-dasharray:none;stroke-opacity:1"
         d="m 110.75447,89.934933 c -1.71999,0.06197 -1.0527,-5.518449 -5.30794,-5.243366"
         id="path38847"
         sodipodi:nodetypes="cc" />
      <path
         style="fill:none;stroke:#093a3e;stroke-width:0.258755;stroke-linecap:round;stroke-linejoin:miter;stroke-miterlimit:4;stroke-dasharray:none;stroke-opacity:1"
         d="m 107.18446,84.942853 c -0.0168,-1.003041 -1.78744,-0.989275 -1.54832,-1.777787"
         id="path38849"
         sodipodi:nodetypes="cc" />
      <path
         style="fill:none;stroke:#093a3e;stroke-width:0.258755;stroke-linecap:round;stroke-linejoin:miter;stroke-miterlimit:4;stroke-dasharray:none;stroke-opacity:1"
         d="m 108.34292,85.941081 c 0.95001,-1.338132 0.15753,-2.419965 -1.18128,-3.421438"
         id="path38851"
         sodipodi:nodetypes="cc" />
      <ellipse
         style="fill:#093a3e;fill-opacity:1;fill-rule:evenodd;stroke:#093a3e;stroke-width:0.260166;stroke-linecap:round;stroke-linejoin:round;stroke-miterlimit:4;stroke-dasharray:none;stroke-opacity:1;paint-order:stroke fill markers"
         id="path42483"
         cx="-82.015419"
         cy="-107.22421"
         rx="0.23150533"
         ry="0.16136278"
         transform="rotate(165)" />
      <ellipse
         style="fill:#093a3e;fill-opacity:1;fill-rule:evenodd;stroke:#093a3e;stroke-width:0.258755;stroke-linecap:round;stroke-linejoin:round;stroke-miterlimit:4;stroke-dasharray:none;stroke-opacity:1;paint-order:stroke fill markers"
         id="path42485"
         cx="-80.615105"
         cy="-107.68082"
         rx="0.16018419"
         ry="0.10397743"
         transform="rotate(165)" />
      <ellipse
         style="fill:#093a3e;fill-opacity:1;fill-rule:evenodd;stroke:#093a3e;stroke-width:0.258755;stroke-linecap:round;stroke-linejoin:round;stroke-miterlimit:4;stroke-dasharray:none;stroke-opacity:1;paint-order:stroke fill markers"
         id="path42487"
         cx="-79.688911"
         cy="-108.95454"
         rx="0.26384914"
         ry="0.23789178"
         transform="rotate(165)" />
      <ellipse
         style="fill:#093a3e;fill-opacity:1;fill-rule:evenodd;stroke:#093a3e;stroke-width:0.258755;stroke-linecap:round;stroke-linejoin:round;stroke-miterlimit:4;stroke-dasharray:none;stroke-opacity:1;paint-order:stroke fill markers"
         id="path42489"
         cx="-63.852409"
         cy="-120.17771"
         rx="0.34576786"
         ry="0.22698215"
         transform="rotate(157.27424)" />
      <ellipse
         style="fill:#093a3e;fill-opacity:1;fill-rule:evenodd;stroke:#093a3e;stroke-width:0.258755;stroke-linecap:round;stroke-linejoin:round;stroke-miterlimit:4;stroke-dasharray:none;stroke-opacity:1;paint-order:stroke fill markers"
         id="path42491"
         cx="-77.656456"
         cy="-113.15719"
         rx="0.26624238"
         ry="0.29476836"
         transform="rotate(165)" />
      <ellipse
         style="fill:#093a3e;fill-opacity:1;fill-rule:evenodd;stroke:#093a3e;stroke-width:0.258755;stroke-linecap:round;stroke-linejoin:round;stroke-miterlimit:4;stroke-dasharray:none;stroke-opacity:1;paint-order:stroke fill markers"
         id="path42493"
         cx="-74.841888"
         cy="-114.84973"
         rx="0.28525969"
         ry="0.25673372"
         transform="rotate(165)" />
      <ellipse
         style="fill:#093a3e;fill-opacity:1;fill-rule:evenodd;stroke:#093a3e;stroke-width:0.273931;stroke-linecap:round;stroke-linejoin:round;stroke-miterlimit:4;stroke-dasharray:none;stroke-opacity:1;paint-order:stroke fill markers"
         id="path42495"
         cx="-115.37796"
         cy="-77.976875"
         rx="0.13504198"
         ry="0.19209389"
         transform="rotate(-171.37173)" />
      <ellipse
         style="fill:#093a3e;fill-opacity:1;fill-rule:evenodd;stroke:#093a3e;stroke-width:0.258755;stroke-linecap:round;stroke-linejoin:round;stroke-miterlimit:4;stroke-dasharray:none;stroke-opacity:1;paint-order:stroke fill markers"
         id="path42521"
         cx="-128.36618"
         cy="-60.152527"
         rx="0.21212885"
         ry="0.29320231"
         transform="rotate(-163.21232)" />
      <ellipse
         style="fill:#093a3e;fill-opacity:1;fill-rule:evenodd;stroke:#093a3e;stroke-width:0.258755;stroke-linecap:round;stroke-linejoin:round;stroke-miterlimit:4;stroke-dasharray:none;stroke-opacity:1;paint-order:stroke fill markers"
         id="path42523"
         cx="-75.953255"
         cy="-119.96324"
         rx="0.17952093"
         ry="0.16378799"
         transform="rotate(165)" />
      <ellipse
         style="fill:#093a3e;fill-opacity:1;fill-rule:evenodd;stroke:#093a3e;stroke-width:0.199569;stroke-linecap:round;stroke-linejoin:round;stroke-miterlimit:4;stroke-dasharray:none;stroke-opacity:1;paint-order:stroke fill markers"
         id="path42525"
         cx="-82.462807"
         cy="-120.93901"
         rx="0.38390502"
         ry="0.3674702"
         transform="matrix(-0.96259214,0.27095455,-0.24715199,-0.96897673,0,0)" />
      <ellipse
         style="fill:#093a3e;fill-opacity:1;fill-rule:evenodd;stroke:#093a3e;stroke-width:0.199698;stroke-linecap:round;stroke-linejoin:round;stroke-miterlimit:4;stroke-dasharray:none;stroke-opacity:1;paint-order:stroke fill markers"
         id="path42527"
         cx="-72.897552"
         cy="-118.91399"
         rx="0.30563277"
         ry="0.34359127"
         transform="matrix(-0.97452062,0.22429795,-0.29778765,-0.95463214,0,0)" />
      <rect
         style="fill:#6bd6ab;fill-opacity:1;fill-rule:evenodd;stroke:none;stroke-width:0.232377;stroke-linecap:round;stroke-linejoin:round;stroke-miterlimit:4;stroke-dasharray:none;stroke-opacity:1;paint-order:stroke fill markers"
         id="rect43016"
         width="3.3031518"
         height="2.1510713"
         x="-72.29406"
         y="-133.91231"
         ry="0.93848801"
         transform="matrix(-0.87522469,0.48371659,-0.4802325,-0.87714123,0,0)" />
      <rect
         style="fill:#6bd6ab;fill-opacity:1;fill-rule:evenodd;stroke:none;stroke-width:0.232377;stroke-linecap:round;stroke-linejoin:round;stroke-miterlimit:4;stroke-dasharray:none;stroke-opacity:1;paint-order:stroke fill markers"
         id="rect43098"
         width="3.3031518"
         height="2.1510713"
         x="-83.993698"
         y="-122.45515"
         ry="0.93848801"
         transform="matrix(-0.94779399,0.31888328,-0.31511195,-0.94905451,0,0)" />
      <rect
         style="fill:#6bd6ab;fill-opacity:1;fill-rule:evenodd;stroke:none;stroke-width:0.232377;stroke-linecap:round;stroke-linejoin:round;stroke-miterlimit:4;stroke-dasharray:none;stroke-opacity:1;paint-order:stroke fill markers"
         id="rect43100"
         width="3.3031518"
         height="2.1510713"
         x="-35.423222"
         y="-145.32568"
         ry="0.93848801"
         transform="matrix(-0.75438865,0.65642803,-0.65342308,-0.75699292,0,0)" />
      <rect
         style="fill:#6bd6ab;fill-opacity:1;fill-rule:evenodd;stroke:none;stroke-width:0.232377;stroke-linecap:round;stroke-linejoin:round;stroke-miterlimit:4;stroke-dasharray:none;stroke-opacity:1;paint-order:stroke fill markers"
         id="rect43102"
         width="3.3031518"
         height="2.1510713"
         x="-33.007774"
         y="-146.69876"
         ry="0.93848801"
         transform="matrix(-0.72595243,0.68774492,-0.6848528,-0.72868144,0,0)" />
      <ellipse
         style="fill:#a0ced9;fill-opacity:1;fill-rule:evenodd;stroke:none;stroke-width:0.366527;stroke-linecap:round;stroke-linejoin:round;stroke-miterlimit:4;stroke-dasharray:none;stroke-opacity:1;paint-order:stroke fill markers"
         id="path43286"
         cx="-87.629112"
         cy="-129.32864"
         rx="2.0931516"
         ry="1.7618345"
         transform="matrix(-0.91212843,0.40990454,-0.42337734,-0.90595344,0,0)" />
    </g>
  </g>
</svg>
